<svg width="30" height="30" viewBox="0 0 30 30" fill="none" xmlns="http://www.w3.org/2000/svg">
<path fill-rule="evenodd" clip-rule="evenodd" d="M15 30C23.2843 30 30 23.2843 30 15C30 6.71574 23.2843 0 15 0C6.71574 0 0 6.71574 0 15C0 23.2843 6.71574 30 15 30ZM9.95164 12.9451C9.45402 12.547 8.72793 12.6277 8.32975 13.1254C7.93171 13.6229 8.01241 14.3491 8.51004 14.7471L14.2793 19.3625C14.7007 19.6996 15.2994 19.6996 15.7209 19.3625L21.4901 14.7471C21.9877 14.3491 22.0684 13.6229 21.6702 13.1254C21.2722 12.6277 20.5461 12.547 20.0485 12.9451L15 16.9839L9.95164 12.9451Z" fill="#2B9CE5"/>
</svg>
