<svg width="56" height="56" viewBox="0 0 56 56" fill="none" xmlns="http://www.w3.org/2000/svg">
<path d="M20.5003 4.66711H18.667V10.5H20.5003V4.66711Z" fill="white"/>
<path d="M37.3323 4.66711H35.499V10.5H37.3323V4.66711Z" fill="white"/>
<path d="M52.4994 9.33374H3.49996C1.567 9.33374 0 10.9007 0 12.8337V24.5003C0 26.4332 1.567 28.0002 3.49996 28.0002H22.1664V26.167H2.99996C2.35564 26.167 1.83327 25.6446 1.83327 25.0003V12.3337C1.83327 11.6894 2.35564 11.167 2.99996 11.167H52.9994C53.6437 11.167 54.1661 11.6894 54.1661 12.3337V25.0003C54.1661 25.6446 53.6437 26.167 52.9994 26.167H47.8327V28.0002H52.4994C54.4323 28.0002 55.9993 26.4332 55.9993 24.5003V12.8337C55.9993 10.9007 54.4323 9.33374 52.4994 9.33374Z" fill="white"/>
<path d="M5.33394 54.1666C4.68962 54.1666 4.16725 53.6441 4.16725 52.9998V30.3335H2.33398V52.4999C2.33398 54.4329 3.90098 55.9999 5.83394 55.9999H9.3339V54.1666H5.33394Z" fill="white"/>
<path d="M33.8333 22.1669H22.1667C21.5224 22.1669 21 22.6892 21 23.3336V30.3335C21 30.9778 21.5224 31.5002 22.1667 31.5002H30.3333V29.6669H22.8334V24.0002H33.1666V26.8335H34.9998V23.3336C34.9998 22.6892 34.4776 22.1669 33.8333 22.1669Z" fill="white"/>
<path d="M39.6668 0.000521294H16.3338C16.3015 -0.000134948 16.2694 -0.000134948 16.2371 0.000521294C14.9752 0.0272085 13.9738 1.07184 14.0005 2.33379V4.66706C14.0005 5.31138 14.5229 5.83375 15.1672 5.83375H40.8336C41.4779 5.83375 42.0003 5.31138 42.0003 4.66706V2.33379C42.001 2.30153 42.001 2.26937 42.0003 2.2371C41.9734 0.97515 40.9288 -0.0261659 39.6668 0.000521294ZM40.1668 4.00048H15.8338V1.83379L40.161 1.76959C40.1658 1.79059 40.1678 1.81224 40.1668 1.83379V4.00048Z" fill="white"/>
<path d="M54.8333 38.5H51.891C51.7676 38.1535 51.6266 37.8136 51.4687 37.4815L53.55 35.4002C54.0054 34.9447 54.0054 34.2062 53.55 33.7505L50.2495 30.45C49.794 29.9946 49.0555 29.9946 48.5998 30.45L46.5185 32.5313C46.1864 32.3733 45.8465 32.2324 45.5 32.109V29.1667C45.5 28.5224 44.9776 28 44.3333 28H39.6666C39.0224 28 38.5 28.5224 38.5 29.1667V32.109C38.1536 32.2319 37.8136 32.3726 37.4815 32.5302L35.4002 30.45C34.9447 29.9946 34.2062 29.9946 33.7505 30.45L30.45 33.7505C29.9946 34.206 29.9946 34.9445 30.45 35.4002L32.5313 37.4815C32.3733 37.8136 32.2324 38.1535 32.109 38.5H29.1667C28.5224 38.5 28 39.0224 28 39.6667V44.3334C28 44.9777 28.5224 45.5001 29.1667 45.5001H32.109C32.2319 45.8465 32.3726 46.1865 32.5302 46.5186L30.45 48.5998C29.9946 49.0553 29.9946 49.7938 30.45 50.2495L33.7505 53.55C34.206 54.0054 34.9445 54.0054 35.4002 53.55L37.4815 51.4687C37.8136 51.6267 38.1535 51.7676 38.5 51.891V54.8333C38.5 55.4776 39.0224 56 39.6667 56H44.3334C44.9777 56 45.5001 55.4776 45.5001 54.8333V51.8921C45.8466 51.7687 46.1865 51.6277 46.5186 51.4698L48.5999 53.55C49.0555 54.0054 49.794 54.0054 50.2496 53.55L53.5501 50.2495C54.0055 49.794 54.0055 49.0555 53.5501 48.5998L51.4688 46.5185C51.6269 46.1864 51.7677 45.8465 51.8911 45.5H54.8334C55.4777 45.5 56.0001 44.9776 56.0001 44.3333V39.6666C56 39.0224 55.4776 38.5 54.8333 38.5ZM54.1667 43.6655H52.0289C51.497 43.6656 51.0325 44.0255 50.8996 44.5405C50.7092 45.2776 50.4166 45.4845 50.0304 46.1405C49.7595 46.599 49.8334 47.1827 50.2101 47.5592L52.0768 49.4259L49.4271 52.0756L47.5604 50.2089C47.1839 49.8322 46.6002 49.7583 46.1417 50.0292C45.4857 50.4154 45.2788 50.208 44.5417 50.3984C44.0267 50.5314 43.6668 50.9958 43.6667 51.5277V54.1667H40.3334L40.3346 51.5312C40.3345 50.9993 39.9747 50.5348 39.4596 50.4019C38.7225 50.2115 38.5156 50.4189 37.8596 50.0327C37.4011 49.7618 36.8174 49.8357 36.4409 50.2124L34.5742 52.0791L31.9245 49.4294L33.7912 47.5627C34.1679 47.1862 34.2418 46.6025 33.9709 46.144C33.5847 45.488 33.7921 45.2811 33.6017 44.544C33.4687 44.029 33.0043 43.6691 32.4724 43.669H29.8334V40.3357H32.4736C33.0055 40.3356 33.47 39.9758 33.6029 39.4607C33.7933 38.7236 34.0859 38.5167 34.4721 37.8607C34.743 37.4022 34.6691 36.8185 34.2924 36.442L31.9257 34.5753L34.573 31.9245L36.4397 34.2912C36.8162 34.6679 37.3999 34.7418 37.8584 34.4709C38.5144 34.0847 38.7213 33.7921 39.4584 33.6017C39.9735 33.4687 40.3333 33.0043 40.3334 32.4724V29.3333H43.6667V32.4723C43.666 33.004 44.0249 33.4688 44.5394 33.6028C45.2765 33.7932 45.4834 33.5858 46.1394 33.972C46.5979 34.2429 47.1816 34.169 47.5581 33.7923L49.4248 31.9256L52.0756 34.5729L50.2089 36.4396C49.8322 36.8161 49.7583 37.3998 50.0292 37.8583C50.4154 38.5143 50.708 38.7212 50.8984 39.4583C51.0314 39.9733 51.4958 40.3332 52.0277 40.3333H54.1667V43.6655Z" fill="white"/>
<path d="M42.0007 37.3333C39.4234 37.3333 37.334 39.4226 37.334 42C37.334 44.5773 39.4234 46.6667 42.0007 46.6667C44.578 46.6667 46.6674 44.5773 46.6674 42C46.6674 39.4226 44.578 37.3333 42.0007 37.3333ZM42.0007 44.8332C40.5 44.8332 39.1674 43.9999 39.1674 42C39.1674 40 40.712 39.1667 42.0007 39.1667C43.2893 39.1667 44.834 39.9999 44.834 42C44.834 43.9999 43.5014 44.8332 42.0007 44.8332Z" fill="white"/>
<path d="M30.3329 54.1664H21V55.9997H30.3329V54.1664Z" fill="white"/>
<path d="M18.6673 54.1664H16.334V55.9997H18.6673V54.1664Z" fill="white"/>
<path d="M25.6668 48.3335H11.667V50.1668H25.6668V48.3335Z" fill="white"/>
<path d="M25.6672 42.4995H23.334V44.3328H25.6672V42.4995Z" fill="white"/>
<path d="M21.0003 42.4995H18.667V44.3328H21.0003V42.4995Z" fill="white"/>
<path d="M16.3339 42.4995H9.33398V44.3328H16.3339V42.4995Z" fill="white"/>
<path d="M25.6669 36.1665H15.167V37.9998H25.6669V36.1665Z" fill="white"/>
</svg>
