<svg width="49" height="56" viewBox="0 0 49 56" fill="none" xmlns="http://www.w3.org/2000/svg">
<path d="M37.3333 10.5H34.391C34.2676 10.1535 34.1266 9.81356 33.9687 9.4815L36.05 7.4002C36.5054 6.94466 36.5054 6.20616 36.05 5.7505L32.7495 2.45C32.294 1.99456 31.5555 1.99456 31.0998 2.45L29.0185 4.5313C28.6864 4.37325 28.3465 4.23238 28 4.109V1.1667C28 0.522375 27.4776 0 26.8333 0H22.1666C21.5224 0 21 0.522375 21 1.1667V4.109C20.6536 4.23194 20.3136 4.37259 19.9815 4.5302L17.9002 2.45C17.4447 1.99456 16.7062 1.99456 16.2505 2.45L12.95 5.7505C12.4946 6.20605 12.4946 6.94455 12.95 7.4002L15.0313 9.4815C14.8733 9.81356 14.7324 10.1535 14.609 10.5H11.6667C11.0224 10.5 10.5 11.0224 10.5 11.6667V16.3334C10.5 16.9777 11.0224 17.5001 11.6667 17.5001H14.609C14.7319 17.8465 14.8726 18.1865 15.0302 18.5186L12.95 20.5998C12.4946 21.0553 12.4946 21.7938 12.95 22.2495L16.2505 25.55C16.706 26.0054 17.4445 26.0054 17.9002 25.55L19.9815 23.4687C20.3136 23.6267 20.6535 23.7676 21 23.891V26.8333C21 27.4776 21.5224 28 22.1667 28H26.8334C27.4777 28 28.0001 27.4776 28.0001 26.8333V23.8921C28.3466 23.7687 28.6865 23.6277 29.0186 23.4698L31.0999 25.55C31.5555 26.0054 32.294 26.0054 32.7496 25.55L36.0501 22.2495C36.5055 21.794 36.5055 21.0555 36.0501 20.5998L33.9688 18.5185C34.1269 18.1864 34.2677 17.8465 34.3911 17.5H37.3334C37.9777 17.5 38.5001 16.9776 38.5001 16.3333V11.6666C38.5 11.0224 37.9776 10.5 37.3333 10.5ZM36.6667 15.6655H34.5289C33.997 15.6656 33.5325 16.0255 33.3996 16.5405C33.2092 17.2776 32.9166 17.4845 32.5304 18.1405C32.2595 18.599 32.3334 19.1827 32.7101 19.5592L34.5768 21.4259L31.9271 24.0756L30.0604 22.2089C29.6839 21.8322 29.1002 21.7583 28.6417 22.0292C27.9857 22.4154 27.7788 22.208 27.0417 22.3984C26.5267 22.5314 26.1668 22.9958 26.1667 23.5277V26.1667H22.8334L22.8346 23.5312C22.8345 22.9993 22.4747 22.5348 21.9596 22.4019C21.2225 22.2115 21.0156 22.4189 20.3596 22.0327C19.9011 21.7618 19.3174 21.8357 18.9409 22.2124L17.0742 24.0791L14.4245 21.4294L16.2912 19.5627C16.6679 19.1862 16.7418 18.6025 16.4709 18.144C16.0847 17.488 16.2921 17.2811 16.1017 16.544C15.9687 16.029 15.5043 15.6691 14.9724 15.669H12.3334V12.3357H14.9736C15.5055 12.3356 15.97 11.9758 16.1029 11.4607C16.2933 10.7236 16.5859 10.5167 16.9721 9.8607C17.243 9.4022 17.1691 8.81847 16.7924 8.442L14.4257 6.5753L17.073 3.9245L18.9397 6.2912C19.3162 6.66789 19.8999 6.74183 20.3584 6.47091C21.0144 6.0847 21.2213 5.79213 21.9584 5.6017C22.4735 5.4687 22.8333 5.0043 22.8334 4.47241V1.3333H26.1667V4.4723C26.166 5.00397 26.5249 5.46881 27.0394 5.6028C27.7765 5.79322 27.9834 5.5858 28.6394 5.972C29.0979 6.24292 29.6816 6.16898 30.0581 5.7923L31.9248 3.92559L34.5756 6.57289L32.7089 8.43959C32.3322 8.81606 32.2583 9.3998 32.5292 9.8583C32.9154 10.5143 33.208 10.7212 33.3984 11.4583C33.5314 11.9733 33.9958 12.3332 34.5277 12.3333H36.6667V15.6655Z" fill="white"/>
<path d="M24.5007 9.33331C21.9234 9.33331 19.834 11.4227 19.834 14C19.834 16.5773 21.9234 18.6667 24.5007 18.6667C27.078 18.6667 29.1674 16.5773 29.1674 14C29.1674 11.4227 27.078 9.33331 24.5007 9.33331ZM24.5007 16.8333C23 16.8333 21.6674 16 21.6674 14C21.6674 12 23.212 11.1667 24.5007 11.1667C25.7893 11.1667 27.334 12 27.334 14C27.334 16 26.0014 16.8333 24.5007 16.8333Z" fill="white"/>
<path d="M16.3326 29.1667V31.4662C16.3326 35.35 14.2396 38.5 11.6659 38.5C9.09231 38.5 6.99931 35.35 6.99931 31.4662V29.3312C7.57681 27.2143 9.47261 25.7256 11.666 25.6667V23.3334C8.35381 23.3881 5.49387 25.6668 4.70102 28.8832C4.67783 28.9759 4.66602 29.0711 4.66602 29.1667V31.4662C4.66602 36.7185 7.74131 40.8334 11.666 40.8334C15.5907 40.8334 18.666 36.7186 18.666 31.4662V29.1667H16.3326Z" fill="white"/>
<path d="M17.4996 40.8333C17.4057 40.8393 17.3115 40.8393 17.2175 40.8333C16.0068 40.7554 15.0883 39.7108 15.1663 38.5H12.833C12.8304 38.5891 12.8304 38.6784 12.833 38.7676C12.907 41.271 14.9962 43.2406 17.4997 43.1667C19.4327 43.1667 20.9997 44.7337 20.9997 46.6667V56H23.333V46.6667C23.3291 43.4466 20.7197 40.8372 17.4996 40.8333Z" fill="white"/>
<path d="M10.5 38.5H8.1667C8.17261 38.5931 8.17261 38.6865 8.1667 38.7796C8.08948 39.991 7.04484 40.9105 5.83341 40.8333C2.6133 40.8372 0.00382812 43.4466 0 46.6667V56H2.3333V46.6667C2.3333 44.7337 3.90031 43.1667 5.8333 43.1667C5.92244 43.1693 6.01169 43.1693 6.10094 43.1667C8.60442 43.0928 10.5739 41.0035 10.5 38.5Z" fill="white"/>
<path d="M6.50029 47.833H4.66699V56H6.50029V47.833Z" fill="white"/>
<path d="M18.6663 47.833H16.833V56H18.6663V47.833Z" fill="white"/>
<path d="M44.299 28.8832C43.5061 25.6668 40.6462 23.388 37.334 23.3334V25.1667C39.5268 25.2258 41.9224 27.2139 42.5007 29.33V31.4662C42.5007 35.35 39.9077 39 37.334 39C34.7603 39 32.1673 35.35 32.1673 31.4662V29.1667H30.334V31.4662C30.334 36.7185 33.4093 40.8334 37.334 40.8334C41.2587 40.8334 44.334 36.7186 44.334 31.4662V29.1667C44.334 29.0711 44.3223 28.9758 44.299 28.8832Z" fill="white"/>
<path d="M43.1667 40.8333C43.0728 40.8393 42.9786 40.8393 42.8846 40.8333C41.6739 40.7554 40.7554 40.2108 40.8334 39H39C38.9974 39.0891 38.9974 39.1784 39 39.2676C39.074 41.771 40.6632 42.7406 43.1667 42.6667C45.0997 42.6667 47.1667 44.7337 47.1667 46.6667V56H49V46.6667C48.9962 43.4466 46.3867 40.8372 43.1667 40.8333Z" fill="white"/>
<path d="M35.6669 39H33.8336C33.8395 39.0931 33.8395 39.1865 33.8336 39.2796C33.7564 40.491 32.7117 40.9105 31.5003 40.8333C28.2802 40.8371 25.6708 43.4466 25.667 46.6666V56H27.5002V46.6667C27.5002 44.7337 29.5672 42.6667 31.5002 42.6667C31.5893 42.6693 31.6786 42.6693 31.7678 42.6667C34.2712 42.5928 35.7407 41.5035 35.6669 39Z" fill="white"/>
<path d="M31.6663 47.833H30.333V56H31.6663V47.833Z" fill="white"/>
<path d="M44.3333 47.833H43V56H44.3333V47.833Z" fill="white"/>
<path d="M25.3333 30.333H23.5V32.6663H25.3333V30.333Z" fill="white"/>
<path d="M25.3333 35H23.5V37.3333H25.3333V35Z" fill="white"/>
<path d="M25.3333 39.667H23.5V42.0003H25.3333V39.667Z" fill="white"/>
</svg>
