<svg width="30" height="30" viewBox="0 0 30 30" fill="none" xmlns="http://www.w3.org/2000/svg">
<path fill-rule="evenodd" clip-rule="evenodd" d="M15 0C23.2843 0 30 6.71575 30 15C30 23.2843 23.2843 30 15 30C6.71574 30 0 23.2843 0 15C0 6.71575 6.71574 0 15 0ZM9.95164 17.0549C9.45402 17.453 8.72793 17.3723 8.32975 16.8746C7.93171 16.3771 8.01241 15.6509 8.51004 15.2529L14.2793 10.6375C14.7007 10.3004 15.2994 10.3004 15.7209 10.6375L21.4901 15.2529C21.9877 15.6509 22.0684 16.3771 21.6702 16.8746C21.2722 17.3723 20.5461 17.453 20.0485 17.0549L15 13.0161L9.95164 17.0549Z" fill="#C4D0D7"/>
</svg>
