<svg width="16" height="16" viewBox="0 0 16 16" fill="none" xmlns="http://www.w3.org/2000/svg">
<path d="M6.85708 0.761719C6.85708 0.341309 7.19839 0 7.6188 0C12.2477 0 16.0001 3.75244 16.0001 8.38086C16.0001 8.80176 15.6588 9.14307 15.2379 9.14307C14.817 9.14307 14.4762 8.80176 14.4762 8.38086C14.4762 4.59375 11.4059 1.52393 7.6188 1.52393C7.19839 1.52393 6.85708 1.18262 6.85708 0.761719Z" fill="#C0CCD3"/>
<path d="M12.5734 12.979C13.0797 13.4009 13.0797 14.0786 12.567 14.4976L11.3229 15.5151C10.8131 15.9321 9.88785 16.1255 9.26773 15.9131C9.26773 15.9131 6.7604 15.4404 3.65689 12.3384C0.55386 9.23633 0.0807159 6.73047 0.0807159 6.73047C-0.11655 6.10547 0.0597198 5.18848 0.479153 4.67578L1.49722 3.43213C1.91421 2.92236 2.5939 2.91943 3.01626 3.42578L4.55288 5.26904C4.83413 5.60596 4.86587 6.17285 4.62076 6.54053L3.93814 7.56445C3.93814 7.56445 3.94644 9.25781 5.34292 10.6538C6.73941 12.0493 8.43326 12.0576 8.43326 12.0576L9.45767 11.375C9.8229 11.1318 10.3947 11.1641 10.7296 11.4429L12.5734 12.979Z" fill="#C0CCD3"/>
<path d="M7.6188 3.42871C7.19839 3.42871 6.85708 3.77002 6.85708 4.19043C6.85708 4.61133 7.19839 4.95264 7.6188 4.95264C9.51236 4.95264 11.0475 6.4873 11.0475 8.38086C11.0475 8.80176 11.3888 9.14307 11.8092 9.14307C12.2301 9.14307 12.5714 8.80176 12.5714 8.38086C12.5714 5.646 10.3542 3.42871 7.6188 3.42871Z" fill="#C0CCD3"/>
</svg>
