<svg width="42" height="56" viewBox="0 0 42 56" fill="none" xmlns="http://www.w3.org/2000/svg">
<path d="M23.0903 23.3965H6.64306C6.18318 23.3965 5.81055 23.7638 5.81055 24.2168C5.81055 24.67 6.18329 25.0371 6.64306 25.0371H23.0903C23.5501 25.0371 23.9228 24.67 23.9228 24.2168C23.9228 23.7638 23.5501 23.3965 23.0903 23.3965Z" fill="#2F6292"/>
<path d="M36.2688 22.13C36.0397 21.7373 35.5307 21.602 35.1321 21.8277L31.2353 24.0358L31.5933 22.7571C31.7155 22.3204 31.4553 21.8687 31.0121 21.7482C30.5685 21.6277 30.1104 21.8842 29.9882 22.3209L29.5326 23.9481C29.3687 24.5337 29.5777 25.1524 30.065 25.5244C30.5279 25.8777 31.212 25.9417 31.7472 25.6383L35.9621 23.2501C36.3607 23.0242 36.498 22.5227 36.2688 22.13Z" fill="#2B9CE5"/>
<path d="M23.0903 29.6502H6.64306C6.18329 29.6502 5.81055 30.0175 5.81055 30.4706C5.81055 30.9236 6.18318 31.2909 6.64306 31.2909H23.0903C23.5501 31.2909 23.9228 30.9237 23.9228 30.4706C23.9228 30.0175 23.5501 29.6502 23.0903 29.6502Z" fill="#2F6292"/>
<path d="M36.2688 28.3838C36.0396 27.991 35.5307 27.8557 35.1321 28.0816L31.2353 30.2897L31.5933 29.011C31.7156 28.5742 31.4553 28.1225 31.0121 28.0021C30.5685 27.8816 30.1104 28.138 29.9882 28.5748L29.5326 30.2019C29.3687 30.7875 29.5777 31.4063 30.0651 31.7783C30.5294 32.1326 31.2104 32.1963 31.7473 31.8921L35.9622 29.5039C36.3607 29.2781 36.498 28.7766 36.2688 28.3838Z" fill="#2B9CE5"/>
<path d="M23.0903 35.904H6.64306C6.18329 35.904 5.81055 36.2713 5.81055 36.7243C5.81055 37.1773 6.18318 37.5446 6.64306 37.5446H23.0903C23.5501 37.5446 23.9228 37.1773 23.9228 36.7243C23.9228 36.2713 23.5501 35.904 23.0903 35.904Z" fill="#2F6292"/>
<path d="M36.2688 34.6375C36.0396 34.2449 35.5307 34.1095 35.1321 34.3353L31.2353 36.5434L31.5933 35.2646C31.7156 34.8279 31.4553 34.3761 31.0121 34.2557C30.5685 34.1352 30.1104 34.3917 29.9882 34.8284L29.5326 36.4556C29.3687 37.0412 29.5777 37.6599 30.0651 38.032C30.5485 38.4009 31.2174 38.446 31.7472 38.1458L35.9621 35.7576C36.3607 35.5318 36.498 35.0303 36.2688 34.6375Z" fill="#2B9CE5"/>
<path d="M23.0903 42.1577H6.64306C6.18329 42.1577 5.81055 42.525 5.81055 42.978C5.81055 43.4311 6.18318 43.7983 6.64306 43.7983H23.0903C23.5501 43.7983 23.9228 43.4311 23.9228 42.978C23.9228 42.525 23.5501 42.1577 23.0903 42.1577Z" fill="#2F6292"/>
<path d="M36.2688 40.8913C36.0396 40.4985 35.5307 40.3632 35.1321 40.5891L31.2353 42.7971L31.5933 41.5183C31.7155 41.0816 31.4553 40.6299 31.0121 40.5094C30.5685 40.3889 30.1104 40.6453 29.9882 41.082L29.5326 42.7092C29.3687 43.2948 29.5777 43.9136 30.0651 44.2856C30.5484 44.6545 31.2172 44.6998 31.7472 44.3995L35.9621 42.0113C36.3607 41.7854 36.498 41.284 36.2688 40.8913Z" fill="#2B9CE5"/>
<path d="M38.4263 0C38.4263 0 15.4986 0 15.4876 0C15.2697 0 15.0533 0.0885938 14.8989 0.240188C14.8989 0.240188 0.246533 14.6779 0.243425 14.6811C0.0916863 14.8331 0 15.0476 0 15.2607V45.479C0 45.932 0.372742 46.2993 0.83251 46.2993C1.29228 46.2993 1.66502 45.932 1.66502 45.479V16.081H12.219C14.0564 16.081 15.6154 14.8842 16.1355 13.2402C16.2581 12.8524 16.3202 12.4459 16.3202 12.0398V1.64062H38.4264C39.4788 1.64062 40.335 2.48478 40.335 3.52231V14.6353C40.335 15.0883 40.7077 15.4556 41.1675 15.4556C41.6273 15.4556 42 15.0883 42 14.6353V3.52231C42 1.58014 40.3968 0 38.4263 0ZM14.6552 12.0399C14.6552 13.3415 13.5485 14.4403 12.219 14.4403H2.84241L14.6552 2.80066C14.6552 2.80066 14.6552 12.0396 14.6552 12.0399Z" fill="#2F6292"/>
<path d="M41.1674 17.0963C40.7076 17.0963 40.3349 17.4636 40.3349 17.9166V52.4788C40.3349 53.5158 39.4787 54.3594 38.4263 54.3594H3.57369C2.52128 54.3594 1.66513 53.5158 1.66513 52.4788V48.7604C1.66502 48.3074 1.29228 47.9401 0.83251 47.9401C0.372742 47.9401 0 48.3074 0 48.7604V52.4788C0 54.4204 1.60308 56 3.57358 56H38.4263C40.3968 56 41.9999 54.4204 41.9999 52.4788V17.9166C41.9999 17.4636 41.6271 17.0963 41.1674 17.0963Z" fill="#2F6292"/>
</svg>
