<svg width="62" height="56" viewBox="0 0 62 56" fill="none" xmlns="http://www.w3.org/2000/svg">
<path d="M50.3365 0H3.81581C1.71179 0 0 1.70903 0 3.80964V42.5142C0 44.6148 1.71179 46.3237 3.81581 46.3237H34.2844C34.786 46.3237 35.1926 45.9178 35.1926 45.417C35.1926 44.9162 34.786 44.5103 34.2844 44.5103H30.8918V38.6438C30.8918 37.1008 29.9702 35.7205 28.5437 35.1273L23.7723 33.1424C23.3872 32.9822 23.1384 32.6096 23.1384 32.1931V30.7773C24.3611 29.5358 25.0767 27.8453 25.0767 26.0648V22.1944C25.0767 19.0267 22.0606 16.4495 18.3535 16.4495C14.6463 16.4495 11.6302 19.0266 11.6302 22.1944V26.0648C11.6302 27.8451 12.3458 29.5357 13.5685 30.7773V32.1931C13.5685 32.6096 13.3197 32.9822 12.9346 33.1425L8.16335 35.1273C6.73685 35.7207 5.81508 37.101 5.81508 38.6439V44.5104H3.81581C2.71337 44.5104 1.81642 43.6149 1.81642 42.5143V11.4896H52.3357V26.5485C52.3357 27.0493 52.7424 27.4553 53.2439 27.4553C53.7455 27.4553 54.1521 27.0493 54.1521 26.5485V3.80964C54.1521 1.70903 52.4405 0 50.3365 0ZM7.6315 38.6438C7.6315 37.8353 8.11442 37.1121 8.86194 36.8011L13.6333 34.8163C14.6974 34.3737 15.3849 33.344 15.3849 32.1931V31.9966C15.7183 32.0179 16.051 31.8552 16.2298 31.547C16.4811 31.1136 16.333 30.5589 15.899 30.3079C14.3864 29.4336 13.4467 27.8077 13.4467 26.065V22.1945C13.4467 20.0268 15.648 18.2631 18.3536 18.2631C21.0592 18.2631 23.2604 20.0267 23.2604 22.1945V26.065C23.2604 27.8084 22.3201 29.4346 20.8066 30.309C20.3725 30.5597 20.2241 31.1144 20.4753 31.548C20.6436 31.8385 20.9486 32.0008 21.2623 32.0008C21.2822 32.0008 21.3022 31.9983 21.3222 31.997V32.1933C21.3222 33.3443 22.0098 34.374 23.074 34.8166L27.8453 36.8015C28.5927 37.1123 29.0756 37.8357 29.0756 38.644V44.5105H7.6315V38.6438ZM52.3357 9.67614H1.81642V3.80964C1.81642 2.70898 2.71337 1.81348 3.81581 1.81348H50.3365C51.4389 1.81348 52.3357 2.70898 52.3357 3.80964V9.67614Z" fill="#2F6292"/>
<path d="M4.79489 4.83813H4.7852C4.28363 4.83813 3.88184 5.24411 3.88184 5.74488C3.88184 6.24564 4.29332 6.65162 4.79489 6.65162C5.29646 6.65162 5.7031 6.24564 5.7031 5.74488C5.7031 5.24411 5.29646 4.83813 4.79489 4.83813Z" fill="#2F6292"/>
<path d="M10.5996 4.83813H10.5899C10.0883 4.83813 9.68652 5.24411 9.68652 5.74488C9.68652 6.24564 10.098 6.65162 10.5996 6.65162C11.1011 6.65162 11.5078 6.24564 11.5078 5.74488C11.5078 5.24411 11.1011 4.83813 10.5996 4.83813Z" fill="#2F6292"/>
<path d="M7.69235 4.83813H7.68266C7.18109 4.83813 6.7793 5.24411 6.7793 5.74488C6.7793 6.24564 7.19078 6.65162 7.69235 6.65162C8.19392 6.65162 8.60056 6.24564 8.60056 5.74488C8.60056 5.24411 8.19392 4.83813 7.69235 4.83813Z" fill="#2F6292"/>
<path d="M49.3671 4.83813H14.4766C13.975 4.83813 13.5684 5.24411 13.5684 5.74488C13.5684 6.24564 13.975 6.65162 14.4766 6.65162H49.3671C49.8686 6.65162 50.2753 6.24564 50.2753 5.74488C50.2753 5.24411 49.8686 4.83813 49.3671 4.83813Z" fill="#2F6292"/>
<path d="M61.3903 32.6548L48.3064 28.1112C48.1132 28.044 47.903 28.044 47.7097 28.1112L38.3008 31.3785C37.827 31.543 37.5766 32.0599 37.7413 32.5328C37.9061 33.0058 38.4238 33.2557 38.8974 33.0914L48.0079 29.9277L60.1402 34.1408C60.0344 35.2986 59.6787 37.8927 58.499 40.9991C57.0609 44.786 54.0788 50.0739 48.0079 54.0185C41.9633 50.0906 38.9832 44.8312 37.5422 41.0654C35.9286 36.8485 35.8327 33.5241 35.8319 33.4909C35.8206 32.9908 35.4117 32.5954 34.9047 32.6046C34.4032 32.6153 34.0053 33.0297 34.0158 33.5303C34.019 33.6759 34.111 37.1459 35.8183 41.6419C37.393 45.7886 40.7028 51.6219 47.5278 55.863C47.6747 55.9543 47.8412 56 48.0077 56C48.1742 56 48.3407 55.9544 48.4876 55.863C55.3126 51.6219 58.6224 45.7886 60.1971 41.6419C61.9045 37.1459 61.9965 33.6759 61.9996 33.5303C62.0083 33.1374 61.7621 32.7838 61.3903 32.6548Z" fill="#2B9CE5"/>
<path d="M53.913 37.7686C53.5583 37.4145 52.9833 37.4145 52.6287 37.7686L47.0133 43.3749L43.6734 40.0404C43.3187 39.6863 42.7436 39.6863 42.3891 40.0404C42.0344 40.3945 42.0344 40.9687 42.3891 41.3227L46.3711 45.2983C46.5484 45.4754 46.7809 45.5639 47.0133 45.5639C47.2457 45.5639 47.4782 45.4754 47.6555 45.2983L53.913 39.0509C54.2677 38.6967 54.2677 38.1226 53.913 37.7686Z" fill="#2B9CE5"/>
<path d="M46.4595 15.4818H30.9525C29.9173 15.4818 29.0752 16.3227 29.0752 17.3561V20.259C29.0752 21.2926 29.9174 22.1333 30.9525 22.1333H46.4594C47.4946 22.1335 48.3369 21.2926 48.3369 20.259V17.3561C48.3369 16.3226 47.4946 15.4818 46.4595 15.4818ZM46.5203 20.259C46.5203 20.2927 46.4929 20.3199 46.4594 20.3199H30.9525C30.919 20.32 30.8916 20.2927 30.8916 20.259V17.3561C30.8916 17.3225 30.919 17.2953 30.9525 17.2953H46.4594C46.4931 17.2953 46.5203 17.3226 46.5203 17.3561V20.259Z" fill="#2F6292"/>
<path d="M42.5833 24.1903H30.9531C30.4516 24.1903 30.0449 24.5963 30.0449 25.097C30.0449 25.5978 30.4516 26.0038 30.9531 26.0038H42.5833C43.0849 26.0038 43.4915 25.5978 43.4915 25.097C43.4915 24.5963 43.0849 24.1903 42.5833 24.1903Z" fill="#2F6292"/>
<path d="M37.7375 28.0609H30.9531C30.4516 28.0609 30.0449 28.4669 30.0449 28.9676C30.0449 29.4684 30.4516 29.8744 30.9531 29.8744H37.7375C38.239 29.8744 38.6457 29.4684 38.6457 28.9676C38.6457 28.4669 38.239 28.0609 37.7375 28.0609Z" fill="#2F6292"/>
</svg>
