<svg width="66" height="56" viewBox="0 0 66 56" fill="none" xmlns="http://www.w3.org/2000/svg">
<path d="M53.6513 5.76709L52.9585 0.811444C52.9235 0.561932 52.7904 0.336816 52.5885 0.186309C52.3868 0.0359303 52.1333 -0.0273186 51.8844 0.0108891L46.4322 0.84707C45.9185 0.925809 45.5659 1.40663 45.6446 1.92089C45.7232 2.43527 46.2036 2.78856 46.7169 2.70957L49.8941 2.22229C45.6453 7.48217 41.0757 11.9625 36.2896 15.5524C32.1249 18.6761 27.7881 21.1382 23.3997 22.8705C15.931 25.8185 10.831 25.6249 10.7808 25.6231C10.2608 25.5968 9.82217 25.9992 9.79703 26.5184C9.77177 27.0381 10.172 27.4798 10.691 27.5051C10.7217 27.5065 10.8501 27.512 11.0702 27.512C12.4258 27.512 17.2485 27.3037 23.9718 24.6696C28.531 22.8834 33.0302 20.3416 37.3447 17.1149C42.3027 13.4068 47.0284 8.77659 51.412 3.33935L51.7879 6.02834C51.8537 6.49936 52.2567 6.83987 52.7184 6.83987C52.7617 6.83987 52.8058 6.8369 52.85 6.8307C53.3646 6.75855 53.7234 6.28237 53.6513 5.76709Z" fill="#2B9CE5"/>
<path d="M64.264 50.8141H56.6613C57.2871 50.3974 57.8765 49.9159 58.4199 49.3716C60.5622 47.2264 61.742 44.3743 61.742 41.3406C61.742 38.3069 60.5622 35.4547 58.4199 33.3097C57.6568 32.5455 56.8096 31.9164 55.9099 31.4159V27.6127C55.9099 27.0924 55.4886 26.6707 54.9691 26.6707C54.4495 26.6707 54.0283 27.0925 54.0283 27.6127V30.5792C51.4532 29.7063 48.657 29.7894 46.1424 30.8115V19.2397C46.1424 19.1178 46.2414 19.0187 46.3631 19.0187H53.8077C53.9293 19.0187 54.0283 19.1178 54.0283 19.2397V21.578C54.0283 22.0983 54.4496 22.52 54.9691 22.52C55.4887 22.52 55.9099 22.0982 55.9099 21.578V19.2397C55.9099 18.0789 54.9668 17.1345 53.8075 17.1345H46.3629C45.2037 17.1345 44.2606 18.0789 44.2606 19.2397V31.7917C43.5942 32.2214 42.9623 32.7258 42.3796 33.3094C40.2373 35.4546 39.0576 38.3067 39.0576 41.3404C39.0576 44.3742 40.2373 47.2263 42.3796 49.3714C42.9231 49.9156 43.5124 50.3972 44.1383 50.8138H38.1974V27.7878C38.1974 26.6269 37.2543 25.6826 36.095 25.6826H28.6506C27.4913 25.6826 26.5482 26.6269 26.5482 27.7878V50.8141H20.4849V35.5373C20.4849 34.3765 19.5418 33.4322 18.3825 33.4322H10.938C9.7787 33.4322 8.83562 34.3765 8.83562 35.5373V50.8141H4.96031V2.3657C4.96031 1.40715 4.18159 0.62738 3.22433 0.62738H1.73598C0.778723 0.62738 0 1.40715 0 2.3657V9.05385C0 9.57418 0.421266 9.99588 0.940758 9.99588C1.46025 9.99588 1.88152 9.57405 1.88152 9.05385V2.51156H3.07854V50.9599C3.07854 51.9185 3.85739 52.6983 4.81452 52.6983H64.1182V54.116H1.88164V15.007C1.88164 14.4867 1.46038 14.065 0.940887 14.065C0.421394 14.065 0 14.4867 0 15.007V54.2617C0 55.2202 0.778723 56 1.73598 56H64.264C65.2213 56 66 55.2202 66 54.2617V52.5523C66 51.5939 65.2213 50.8141 64.264 50.8141ZM18.6032 50.8141H10.7173V35.5373C10.7173 35.4155 10.8163 35.3164 10.938 35.3164H18.3825C18.5042 35.3164 18.6032 35.4155 18.6032 35.5373V50.8141ZM28.4298 50.8141V27.7878C28.4298 27.6659 28.5288 27.5668 28.6504 27.5668H36.0949C36.2166 27.5668 36.3156 27.6659 36.3156 27.7878V50.8141H28.4298ZM54.5558 49.8509C53.603 50.3175 52.5676 50.6207 51.513 50.747C51.4952 50.749 51.4776 50.7515 51.4598 50.7535C51.3877 50.7618 51.3156 50.7688 51.2435 50.7754C51.1334 50.785 51.0232 50.7938 50.9124 50.7996C50.8775 50.8016 50.8426 50.8026 50.8076 50.8041C50.6721 50.8098 50.5363 50.8141 50.3998 50.8141C50.2629 50.8141 50.1267 50.8098 49.9909 50.8041C49.948 50.8023 49.9049 50.8003 49.8621 50.7978C49.7596 50.7921 49.6575 50.7843 49.5556 50.7754C49.471 50.7677 49.3866 50.7588 49.3023 50.7489C49.2419 50.7419 49.1817 50.7348 49.1218 50.7267C49.0361 50.715 48.9506 50.7026 48.8653 50.6885C48.8542 50.6867 48.8431 50.6846 48.832 50.6827C47.722 50.496 46.65 50.1128 45.672 49.547C45.6668 49.5441 45.6614 49.5421 45.6563 49.5393C44.9543 49.1305 44.2995 48.6297 43.71 48.0393C41.9231 46.2499 40.9391 43.871 40.9391 41.3405C40.9391 38.81 41.9231 36.4311 43.71 34.6418C44.3943 33.9566 45.1584 33.3993 45.9724 32.9683C45.9953 32.956 46.0185 32.9444 46.0416 32.9324C47.4032 32.2258 48.9012 31.8716 50.3998 31.8716C51.5977 31.8716 52.7955 32.0983 53.9234 32.5498C53.943 32.5576 53.9627 32.5651 53.9822 32.5731C54.0994 32.6209 54.2155 32.6719 54.331 32.7246C54.377 32.7456 54.4229 32.7675 54.4687 32.7894C55.4169 33.2406 56.3057 33.857 57.0894 34.6417C60.778 38.3354 60.778 44.3454 57.0894 48.0391C56.3478 48.7821 55.5034 49.3839 54.5901 49.8367C54.5788 49.8417 54.567 49.8453 54.5558 49.8509Z" fill="#2F6292"/>
<path d="M50.837 40.4286V37.0731C51.9925 37.1557 52.4218 37.6847 52.8179 37.6847C53.3132 37.6847 53.5443 37.0566 53.5443 36.7425C53.5443 35.9326 51.9596 35.5855 50.8371 35.5524V35.1061C50.8371 34.9077 50.5896 34.7259 50.342 34.7259C50.0614 34.7259 49.8632 34.9077 49.8632 35.1061V35.5855C48.295 35.7508 46.7268 36.5773 46.7268 38.66C46.7268 40.7758 48.3776 41.3708 49.8632 41.8998V45.7842C48.1795 45.652 47.7338 44.495 47.1891 44.495C46.7763 44.495 46.4297 45.0403 46.4297 45.4371C46.4297 46.2471 47.8163 47.3546 49.8632 47.3876H49.8631V47.9C49.8631 48.0984 50.0612 48.2801 50.3419 48.2801C50.5894 48.2801 50.837 48.0984 50.837 47.9V47.3379C52.6198 47.09 53.8413 45.966 53.8413 43.9328C53.8413 41.6848 52.2731 40.9575 50.837 40.4286ZM49.9624 40.1145C49.0873 39.7839 48.3776 39.4368 48.3777 38.4947C48.3777 37.635 49.038 37.2218 49.9624 37.1062V40.1145ZM50.7381 45.7512V42.2634C51.547 42.6105 52.1908 43.0733 52.1908 44.1147C52.1908 45.057 51.6295 45.5859 50.7381 45.7512Z" fill="#2B9CE5"/>
</svg>
