<svg width="15" height="16" viewBox="0 0 15 16" fill="none" xmlns="http://www.w3.org/2000/svg">
<path fill-rule="evenodd" clip-rule="evenodd" d="M7.5 0C3.35787 0 0 3.5816 0 8C0 12.4184 3.35787 16 7.5 16C11.6421 16 15 12.4184 15 8C15 3.5816 11.6421 0 7.5 0ZM3.92209 3.08507C2.75693 4.05165 1.94455 5.47917 1.72574 7.11111H3.02656C3.11648 5.61545 3.4315 4.22873 3.92209 3.08507ZM3.92209 12.9149C2.75693 11.9484 1.94455 10.5208 1.72574 8.88889H3.02656C3.11648 10.3845 3.4315 11.7713 3.92209 12.9149ZM5.63746 12.5998C5.14949 11.6536 4.79902 10.3633 4.69711 8.88889H6.66667V13.9141C6.31945 13.6589 5.96453 13.2344 5.63746 12.5998ZM8.33333 13.9141C8.68055 13.6589 9.03547 13.2344 9.36254 12.5998C9.85051 11.6536 10.201 10.3633 10.3029 8.88889H8.33333V13.9141ZM8.33333 7.11111H10.3029C10.201 5.63672 9.85051 4.34635 9.36254 3.40017C9.03547 2.76562 8.68055 2.34115 8.33333 2.08594V7.11111ZM6.66667 2.08594C6.31945 2.34115 5.96453 2.76562 5.63746 3.40017C5.14949 4.34635 4.79902 5.63672 4.69711 7.11111H6.66667V2.08594ZM11.0779 12.9149C11.5685 11.7713 11.8835 10.3845 11.9734 8.88889H13.2743C13.0554 10.5208 12.2431 11.9484 11.0779 12.9149ZM11.9734 7.11111H13.2743C13.0554 5.47917 12.2431 4.05165 11.0779 3.08507C11.5685 4.22873 11.8835 5.61545 11.9734 7.11111Z" fill="#C0CCD3"/>
</svg>
