<svg width="56" height="56" viewBox="0 0 56 56" fill="none" xmlns="http://www.w3.org/2000/svg">
<path d="M6.12592 44.6209H4.37598V46.3709H6.12592V44.6209Z" fill="white"/>
<path d="M39.2868 42.4785L38.4118 40.7279C38.3186 40.5435 38.1639 40.3977 37.9743 40.3156L32.1645 37.8017L31.6971 36.3516C33.2106 35.1277 34.1245 33.0975 34.1245 30.6154V28.8648V23.6129C34.1245 23.3808 34.0322 23.1582 33.8681 22.9941C32.2338 21.6109 30.1384 20.8942 27.9997 20.987C25.8609 20.8942 23.7657 21.6109 22.1312 22.9941C21.9671 23.1582 21.8748 23.3808 21.8748 23.6129V28.8648V30.6154C21.8748 33.0967 22.7882 35.1264 24.3009 36.3505L23.833 37.8017L18.0293 40.3156C17.8398 40.3977 17.685 40.5435 17.5918 40.7279L16.7169 42.4785C16.6563 42.6001 16.6249 42.734 16.625 42.8698V55.9994H18.3749V43.0763L19.0137 41.7949L24.2821 39.5132L27.1247 42.3568V47.2463H28.8746V42.3568L31.7169 39.5135L36.9848 41.7949L37.6244 43.0763V55.9994H39.3743V42.8698C39.3758 42.7343 39.3459 42.6004 39.2868 42.4785ZM23.6248 24.0208C24.9076 23.1345 26.4415 22.6846 27.9997 22.7376C29.5579 22.6845 31.0917 23.1344 32.3745 24.0208V27.8631C31.937 27.748 31.4995 27.5291 31.4995 27.1142C31.4995 26.6308 31.1078 26.2389 30.6246 26.2389H25.3747C24.8915 26.2389 24.4998 26.6308 24.4998 27.1142C24.4998 27.5291 24.0623 27.7479 23.6248 27.8631V24.0208ZM27.9998 40.7568L25.5176 38.2736L25.8512 37.2382C26.5085 37.4854 27.229 37.6179 27.9997 37.6179C28.7698 37.6179 29.4899 37.4855 30.1471 37.2387L30.4812 38.2744L27.9998 40.7568ZM27.9997 35.8673C24.771 35.8673 23.6248 33.0383 23.6248 30.6154V29.6578C24.6768 29.5575 25.6058 28.929 26.0905 27.9895H29.9088C30.3935 28.929 31.3225 29.5575 32.3745 29.6578V30.6154C32.3745 33.0383 31.2283 35.8673 27.9997 35.8673Z" fill="white"/>
<path d="M22.7509 50.7481H21.001V56H22.7509V50.7481Z" fill="white"/>
<path d="M34.9999 50.7481H33.25V56H34.9999V50.7481Z" fill="white"/>
<path d="M38.3304 13.4663L28.7057 0.336675C28.666 0.287657 28.6212 0.242907 28.5721 0.20308C28.1821 -0.113235 27.6097 -0.0534951 27.2935 0.336675L17.6688 13.4663C17.5583 13.6168 17.4988 13.7987 17.499 13.9855C17.4996 14.4689 17.8917 14.8604 18.3749 14.8598H21.8748V18.3611H23.6247V13.9845C23.6247 13.5011 23.2329 13.1092 22.7497 13.1092H20.1021L27.9996 2.33501L35.8971 13.1092H33.2494C32.7662 13.1092 32.3744 13.5011 32.3744 13.9845V18.3611H34.1244V14.8598H37.6243C37.811 14.8601 37.9928 14.8005 38.1433 14.69C38.5327 14.4038 38.6165 13.856 38.3304 13.4663Z" fill="white"/>
<path d="M55.8304 25.7207L46.2057 12.5911C46.166 12.5421 46.1212 12.4973 46.0721 12.4575C45.6821 12.1412 45.1097 12.2009 44.7935 12.5911L35.1688 25.7207C35.0583 25.8712 34.9988 26.0531 34.999 26.2399C34.9996 26.7233 35.3917 27.1148 35.8749 27.1143H39.3748V33.2415H41.1247V26.239C41.1247 25.7556 40.7329 25.3637 40.2497 25.3637H37.6021L45.4996 14.5895L53.3971 25.3637H50.7494H45.4996V27.1143H49.8744V42.8699H51.6244V27.1143H55.1243C55.311 27.1146 55.4927 27.055 55.6432 26.9445C56.0327 26.6582 56.1165 26.1104 55.8304 25.7207Z" fill="white"/>
<path d="M20.8313 25.7207L11.2066 12.5911C11.1669 12.5421 11.1222 12.4973 11.0731 12.4575C10.6831 12.1412 10.1106 12.2009 9.79445 12.5911L0.169745 25.7207C0.05928 25.8712 -0.000218142 26.0531 6.00996e-07 26.2399C0.000547459 26.7233 0.392645 27.1148 0.875848 27.1143H4.37574V42.8699H6.12568V27.1143H10.5005V25.3637H5.25071H2.60293L10.5004 14.5895L18.3981 25.3636H15.7504C15.2672 25.3636 14.8754 25.7555 14.8754 26.2389V33.2414H16.6254V27.1142H20.1252C20.3119 27.1144 20.4937 27.0549 20.6442 26.9444C21.0337 26.6582 21.1175 26.1104 20.8313 25.7207Z" fill="white"/>
<path d="M16.6259 34.9926H14.876V36.7425H16.6259V34.9926Z" fill="white"/>
<path d="M41.1249 34.9926H39.375V36.7425H41.1249V34.9926Z" fill="white"/>
<path d="M51.6249 44.6209H49.875V46.3709H51.6249V44.6209Z" fill="white"/>
</svg>
