<svg width="56" height="56" viewBox="0 0 56 56" fill="none" xmlns="http://www.w3.org/2000/svg">
<path d="M53.375 0H2.625C1.17523 0 0 1.21315 0 2.70968V42.4516C0 42.9504 0.391781 43.3548 0.875 43.3548H20.8075L19.4075 50.5806H17.5C17.0168 50.5806 16.625 50.9851 16.625 51.4839V54.1935H14.875V56H41.125V54.1935H39.375V51.4839C39.375 50.9851 38.9832 50.5806 38.5 50.5806H36.5911L35.1911 43.3548H55.125C55.6082 43.3548 56 42.9504 56 42.4516V2.70968C56 1.21315 54.8248 0 53.375 0ZM35.875 52.3871H37.625V54.1935H18.375V52.3871H20.125H35.875ZM21.1925 50.5806L22.5912 43.3548H33.4075L34.8075 50.5806H21.1925ZM54.25 41.5484H1.75V33.4194H54.25V41.5484ZM6.125 31.6129V6.32258H49.875V31.6129H6.125ZM54.25 31.6129H51.625V5.41935C51.625 4.92055 51.2332 4.51613 50.75 4.51613H5.25C4.76678 4.51613 4.375 4.92055 4.375 5.41935V31.6129H1.75V2.70968C1.75 2.21087 2.14178 1.80645 2.625 1.80645H53.375C53.8582 1.80645 54.25 2.21087 54.25 2.70968V31.6129Z" fill="white"/>
<path d="M28 34.3225C26.5502 34.3225 25.375 35.5357 25.375 37.0322C25.375 38.5287 26.5502 39.7419 28 39.7419C29.4498 39.7419 30.625 38.5287 30.625 37.0322C30.625 35.5357 29.4498 34.3225 28 34.3225ZM28 37.9354C27.5168 37.9354 27.125 37.531 27.125 37.0322C27.125 36.5334 27.5168 36.129 28 36.129C28.4832 36.129 28.875 36.5334 28.875 37.0322C28.875 37.531 28.4832 37.9354 28 37.9354Z" fill="white"/>
<path d="M8.74902 8.12903C8.2658 8.12903 7.87402 8.53345 7.87402 9.03225V11.7419H9.62402V9.93548H11.374V8.12903H8.74902Z" fill="white"/>
<path d="M21.875 9.93555H16.625C16.1418 9.93555 15.75 10.34 15.75 10.8388V16.2581C15.75 16.7569 16.1418 17.1614 16.625 17.1614H21.875C22.3582 17.1614 22.75 16.7569 22.75 16.2581V10.8388C22.75 10.34 22.3582 9.93555 21.875 9.93555ZM17.5 11.742H19.7632L17.5 14.0782V11.742ZM21 15.3549H18.7381L21 13.0201V15.3549Z" fill="white"/>
<path d="M27.125 10.8387H25.375V12.6452H27.125V10.8387Z" fill="white"/>
<path d="M30.625 10.8387H28.875V12.6452H30.625V10.8387Z" fill="white"/>
<path d="M39.375 14.4515H25.375V16.258H39.375V14.4515Z" fill="white"/>
<path d="M21.875 19.871H16.625C16.1418 19.871 15.75 20.2754 15.75 20.7742V26.1936C15.75 26.6924 16.1418 27.0968 16.625 27.0968H21.875C22.3582 27.0968 22.75 26.6924 22.75 26.1936V20.7742C22.75 20.2754 22.3582 19.871 21.875 19.871ZM21 25.2903H17.5V21.6774H21V25.2903Z" fill="white"/>
<path d="M27.125 20.7742H25.375V22.5806H27.125V20.7742Z" fill="white"/>
<path d="M30.625 20.7742H28.875V22.5806H30.625V20.7742Z" fill="white"/>
<path d="M39.375 24.387H25.375V26.1934H39.375V24.387Z" fill="white"/>
</svg>
