<svg width="56" height="56" viewBox="0 0 56 56" fill="none" xmlns="http://www.w3.org/2000/svg">
<path d="M55.1247 10.4999H0.875398C0.392186 10.4999 0.000410151 10.8917 0.000410151 11.3749V27.9996C-0.000136717 28.0238 -0.000136717 28.048 0.000410151 28.0722C0.0204255 29.0186 0.803977 29.7696 1.75039 29.7496H21.8751V27.9996H1.75039V12.2499H54.2497V29.7496C54.2738 29.7502 54.298 29.7502 54.3222 29.7496C55.2687 29.7296 56.0197 28.946 55.9996 27.9996V11.3749C55.9996 10.8915 55.6079 10.4999 55.1247 10.4999Z" fill="white"/>
<path d="M4.75297 52.4992L4.37498 52.1213V28.8746H2.625V52.4835C2.625 52.7151 2.71698 52.9373 2.8805 53.1012L3.77123 53.9929C3.93529 54.1569 4.15776 54.2492 4.38985 54.2492H30.6246V52.4992H4.75297Z" fill="white"/>
<path d="M34.1248 24.4996H21.875C21.3918 24.4996 21 24.8914 21 25.3746V30.6246C21 31.1078 21.3918 31.4995 21.875 31.4995H34.1248C34.608 31.4995 34.9998 31.1078 34.9998 30.6246V25.3746C34.9998 24.8913 34.608 24.4996 34.1248 24.4996ZM33.2498 29.7496H22.75V26.2496H33.2498V29.7496Z" fill="white"/>
<path d="M27.1247 48.1239H3.5V49.8739H27.1247V48.1239Z" fill="white"/>
<path d="M40.2497 3.49994H15.75C15.2668 3.49994 14.875 3.89171 14.875 4.37493V11.3748H16.625V5.24991H39.3747V11.3748H41.1246V4.37493C41.1246 3.89161 40.7329 3.49994 40.2497 3.49994Z" fill="white"/>
<path d="M41.9996 0H14C13.0334 0 12.25 0.783442 12.25 1.74998V4.37494C12.25 4.85815 12.6418 5.24993 13.125 5.24993H42.8746C43.3578 5.24993 43.7496 4.85815 43.7496 4.37494V1.74998C43.7496 0.783442 42.966 0 41.9996 0ZM41.9996 3.49995H14V1.74998H41.9996V3.49995Z" fill="white"/>
<path d="M8.74998 28.8742H7V43.749H8.74998V28.8742Z" fill="white"/>
<path d="M4.37499 13.9998C3.89178 13.9998 3.5 14.3916 3.5 14.8748V18.3748H5.24998V15.7498H7.87494V13.9998H4.37499Z" fill="white"/>
<path d="M41.1633 35.606L40.4529 37.8083L34.6491 40.3221C34.4593 40.4033 34.3043 40.549 34.2116 40.7334L33.3366 42.4834C33.2775 42.6052 33.2475 42.7391 33.2491 42.8745V55.9993H34.9991V43.081L35.6378 41.8009L41.5142 39.2564C41.745 39.1564 41.9216 38.962 41.999 38.7227L42.8258 36.1432L41.1633 35.606Z" fill="white"/>
<path d="M55.9124 42.4834L55.0374 40.7334C54.9446 40.549 54.7897 40.4033 54.5999 40.3221L48.79 37.8083L48.0795 35.606L46.417 36.1432L47.2491 38.7227C47.3264 38.962 47.5031 39.1564 47.7339 39.2564L53.6103 41.8009L54.2499 43.081V55.9993H55.9999V42.8745C56.0013 42.7391 55.9713 42.6052 55.9124 42.4834Z" fill="white"/>
<path d="M49.8748 27.9996C49.86 27.9996 48.1249 27.9506 48.1249 27.1246C48.1249 26.6414 47.7331 26.2496 47.2499 26.2496H42C41.5167 26.2496 41.125 26.6414 41.125 27.1246C41.125 27.9506 39.3899 27.9996 39.375 27.9996C38.8918 27.9996 38.5 28.3914 38.5 28.8746V30.6246C38.5 34.7458 41.0182 37.6245 44.6249 37.6245C48.2316 37.6245 50.7498 34.7458 50.7498 30.6246V28.8746C50.7498 28.3913 50.3581 27.9996 49.8748 27.9996ZM48.9999 30.6246C48.9999 33.0465 47.8536 35.8745 44.6249 35.8745C41.3962 35.8745 40.25 33.0465 40.25 30.6246V29.6682C41.3023 29.5672 42.2312 28.9387 42.7166 27.9996H46.5333C47.0187 28.9387 47.9476 29.5672 48.9999 29.6682V30.6246Z" fill="white"/>
<path d="M38.7564 23.0061C38.5923 23.1702 38.5 23.3926 38.5 23.6247V28.8746H40.25V24.0325C41.533 23.1469 43.0668 22.6972 44.6249 22.7497V20.9998C42.486 20.907 40.3907 21.6233 38.7564 23.0061Z" fill="white"/>
<path d="M50.4926 23.006C48.8582 21.6233 46.7628 20.907 44.624 20.9997V22.7497C46.182 22.6968 47.7158 23.1462 48.999 24.0315V28.8746H50.7489V23.6247C50.7488 23.3926 50.6566 23.17 50.4926 23.006Z" fill="white"/>
<path d="M47.5058 37.8809L44.6244 40.7622L41.7431 37.8809L40.5059 39.1181L44.0058 42.618C44.1699 42.7821 44.3923 42.8744 44.6244 42.8744C44.8565 42.8744 45.079 42.7821 45.243 42.618L48.743 39.1181L47.5058 37.8809Z" fill="white"/>
<path d="M45.499 41.999H43.749V45.499H45.499V41.999Z" fill="white"/>
<path d="M39.374 50.7489H37.624V55.9988H39.374V50.7489Z" fill="white"/>
<path d="M51.624 50.7489H49.874V55.9988H51.624V50.7489Z" fill="white"/>
</svg>
