<svg width="96" height="32" viewBox="0 0 96 32" fill="none" xmlns="http://www.w3.org/2000/svg">
<path d="M4.53125 27H2.65625V10.0938H4.53125V27ZM2.32812 5.20312C2.32812 4.84896 2.44271 4.55208 2.67188 4.3125C2.90104 4.0625 3.21354 3.9375 3.60938 3.9375C4.00521 3.9375 4.31771 4.0625 4.54688 4.3125C4.78646 4.55208 4.90625 4.84896 4.90625 5.20312C4.90625 5.55729 4.78646 5.85417 4.54688 6.09375C4.31771 6.33333 4.00521 6.45312 3.60938 6.45312C3.21354 6.45312 2.90104 6.33333 2.67188 6.09375C2.44271 5.85417 2.32812 5.55729 2.32812 5.20312ZM21.3906 21.1406C21.3906 20.1406 21.0365 19.3698 20.3281 18.8281C19.6302 18.2865 18.3646 17.7396 16.5312 17.1875C14.6979 16.6354 13.2396 16.0208 12.1562 15.3438C10.0833 14.0417 9.04688 12.3438 9.04688 10.25C9.04688 8.41667 9.79167 6.90625 11.2812 5.71875C12.7812 4.53125 14.724 3.9375 17.1094 3.9375C18.6927 3.9375 20.1042 4.22917 21.3438 4.8125C22.5833 5.39583 23.5573 6.22917 24.2656 7.3125C24.974 8.38542 25.3281 9.57812 25.3281 10.8906H21.3906C21.3906 9.70312 21.0156 8.77604 20.2656 8.10938C19.526 7.43229 18.4635 7.09375 17.0781 7.09375C15.7865 7.09375 14.7812 7.36979 14.0625 7.92188C13.3542 8.47396 13 9.24479 13 10.2344C13 11.0677 13.3854 11.7656 14.1562 12.3281C14.9271 12.8802 16.1979 13.4219 17.9688 13.9531C19.7396 14.474 21.1615 15.0729 22.2344 15.75C23.3073 16.4167 24.0938 17.1875 24.5938 18.0625C25.0938 18.9271 25.3438 19.9427 25.3438 21.1094C25.3438 23.0052 24.6146 24.5156 23.1562 25.6406C21.7083 26.7552 19.7396 27.3125 17.25 27.3125C15.6042 27.3125 14.0885 27.0104 12.7031 26.4062C11.3281 25.7917 10.2552 24.9479 9.48438 23.875C8.72396 22.8021 8.34375 21.5521 8.34375 20.125H12.2969C12.2969 21.4167 12.724 22.4167 13.5781 23.125C14.4323 23.8333 15.6562 24.1875 17.25 24.1875C18.625 24.1875 19.6562 23.9115 20.3438 23.3594C21.0417 22.7969 21.3906 22.0573 21.3906 21.1406ZM32.1875 11.9375C33.4271 10.5 34.9948 9.78125 36.8906 9.78125C40.4948 9.78125 42.3229 11.8385 42.375 15.9531V27H38.5781V16.0938C38.5781 14.9271 38.3229 14.1042 37.8125 13.625C37.3125 13.1354 36.5729 12.8906 35.5938 12.8906C34.0729 12.8906 32.9375 13.5677 32.1875 14.9219V27H28.3906V3H32.1875V11.9375ZM56.3281 27C56.1615 26.6771 56.0156 26.151 55.8906 25.4219C54.6823 26.6823 53.2031 27.3125 51.4531 27.3125C49.7552 27.3125 48.3698 26.8281 47.2969 25.8594C46.224 24.8906 45.6875 23.6927 45.6875 22.2656C45.6875 20.4635 46.3542 19.0833 47.6875 18.125C49.0312 17.1562 50.9479 16.6719 53.4375 16.6719H55.7656V15.5625C55.7656 14.6875 55.5208 13.9896 55.0312 13.4688C54.5417 12.9375 53.7969 12.6719 52.7969 12.6719C51.9323 12.6719 51.224 12.8906 50.6719 13.3281C50.1198 13.7552 49.8438 14.3021 49.8438 14.9688H46.0469C46.0469 14.0417 46.3542 13.1771 46.9688 12.375C47.5833 11.5625 48.4167 10.9271 49.4688 10.4688C50.5312 10.0104 51.7135 9.78125 53.0156 9.78125C54.9948 9.78125 56.5729 10.2812 57.75 11.2812C58.9271 12.2708 59.5312 13.6667 59.5625 15.4688V23.0938C59.5625 24.6146 59.776 25.8281 60.2031 26.7344V27H56.3281ZM52.1562 24.2656C52.9062 24.2656 53.6094 24.0833 54.2656 23.7188C54.9323 23.3542 55.4323 22.8646 55.7656 22.25V19.0625H53.7188C52.3125 19.0625 51.2552 19.3073 50.5469 19.7969C49.8385 20.2865 49.4844 20.9792 49.4844 21.875C49.4844 22.6042 49.724 23.1875 50.2031 23.625C50.6927 24.0521 51.3438 24.2656 52.1562 24.2656ZM70.4844 24.2812C71.4323 24.2812 72.2188 24.0052 72.8438 23.4531C73.4688 22.901 73.8021 22.2188 73.8438 21.4062H77.4219C77.3802 22.4583 77.0521 23.4427 76.4375 24.3594C75.8229 25.2656 74.9896 25.9844 73.9375 26.5156C72.8854 27.0469 71.75 27.3125 70.5312 27.3125C68.1667 27.3125 66.2917 26.5469 64.9062 25.0156C63.5208 23.4844 62.8281 21.3698 62.8281 18.6719V18.2812C62.8281 15.7083 63.5156 13.651 64.8906 12.1094C66.2656 10.5573 68.1406 9.78125 70.5156 9.78125C72.526 9.78125 74.1615 10.3698 75.4219 11.5469C76.6927 12.7135 77.3594 14.25 77.4219 16.1562H73.8438C73.8021 15.1875 73.4688 14.3906 72.8438 13.7656C72.2292 13.1406 71.4427 12.8281 70.4844 12.8281C69.2552 12.8281 68.3073 13.276 67.6406 14.1719C66.974 15.0573 66.6354 16.4062 66.625 18.2188V18.8281C66.625 20.6615 66.9531 22.0312 67.6094 22.9375C68.276 23.8333 69.2344 24.2812 70.4844 24.2812ZM85.7812 19.75L84.0938 21.4844V27H80.2969V3H84.0938V16.8438L85.2812 15.3594L89.9531 10.0938H94.5156L88.2344 17.1406L95.1875 27H90.7969L85.7812 19.75Z" fill="white"/>
</svg>
