<svg width="570" height="168" viewBox="0 0 570 168" fill="none" xmlns="http://www.w3.org/2000/svg">
<rect x="0.5" y="0.5" width="569" height="167" rx="3.5" fill="#EFF2F7" stroke="#C0CCD3"/>
<path d="M49.5273 30V17.9141H53.0967C54.3916 17.9141 55.3739 18.1825 56.0435 18.7192C56.7131 19.2505 57.0479 20.0363 57.0479 21.0767C57.0479 21.702 56.8763 22.2471 56.5332 22.7119C56.1956 23.1712 55.7308 23.5005 55.1387 23.6997C55.8415 23.8547 56.4059 24.2005 56.832 24.7373C57.2637 25.2741 57.4795 25.8939 57.4795 26.5967C57.4795 27.6647 57.1336 28.5003 56.4419 29.1035C55.7557 29.7012 54.7983 30 53.5698 30H49.5273ZM50.5483 24.1895V29.1367H53.6113C54.4857 29.1367 55.1774 28.9154 55.6865 28.4727C56.2012 28.0244 56.4585 27.4046 56.4585 26.6133C56.4585 25.8662 56.2122 25.2769 55.7197 24.8452C55.2327 24.408 54.5576 24.1895 53.6943 24.1895H50.5483ZM50.5483 23.3345H53.3374C54.1896 23.3179 54.8481 23.1187 55.313 22.7368C55.7834 22.3494 56.0186 21.7878 56.0186 21.0518C56.0186 20.277 55.7751 19.707 55.2881 19.3418C54.8066 18.971 54.0762 18.7856 53.0967 18.7856H50.5483V23.3345ZM59.1729 25.3765C59.1729 24.5132 59.3389 23.7357 59.6709 23.0439C60.0085 22.3522 60.4816 21.8154 61.0903 21.4336C61.7046 21.0462 62.3991 20.8525 63.1738 20.8525C64.3691 20.8525 65.3376 21.2731 66.0791 22.1143C66.8206 22.9499 67.1914 24.0594 67.1914 25.4429V25.6504C67.1914 26.5192 67.0226 27.3022 66.6851 27.9995C66.353 28.6912 65.8826 29.2253 65.2739 29.6016C64.6652 29.9779 63.9707 30.166 63.1904 30.166C62.0007 30.166 61.0322 29.7482 60.2852 28.9126C59.5436 28.0715 59.1729 26.9591 59.1729 25.5757V25.3765ZM60.1689 25.6504C60.1689 26.724 60.4456 27.6066 60.999 28.2983C61.5579 28.9845 62.2884 29.3276 63.1904 29.3276C64.0869 29.3276 64.8118 28.9845 65.3652 28.2983C65.9242 27.6066 66.2036 26.6963 66.2036 25.5674V25.3765C66.2036 24.6903 66.0763 24.0622 65.8218 23.4922C65.5672 22.9222 65.2103 22.4823 64.751 22.1724C64.2917 21.8569 63.766 21.6992 63.1738 21.6992C62.2884 21.6992 61.5662 22.0479 61.0073 22.7451C60.4484 23.4368 60.1689 24.3444 60.1689 25.4678V25.6504ZM76.1479 30H75.1519V21.8735H70.3125V30H69.3164V21.0186H76.1479V30ZM86.0342 25.6006C86.0342 27.0007 85.7243 28.113 85.1045 28.9375C84.4847 29.7565 83.6546 30.166 82.6143 30.166C81.3857 30.166 80.445 29.7344 79.792 28.8711V33.4531H78.8042V21.0186H79.7256L79.7754 22.2886C80.4229 21.3312 81.3608 20.8525 82.5894 20.8525C83.6629 20.8525 84.5041 21.2593 85.1128 22.0728C85.7271 22.8862 86.0342 24.0151 86.0342 25.4595V25.6006ZM85.0381 25.4263C85.0381 24.2808 84.8029 23.376 84.3325 22.7119C83.8621 22.0479 83.2064 21.7158 82.3652 21.7158C81.7565 21.7158 81.2336 21.8625 80.7964 22.1558C80.3592 22.4491 80.0244 22.8752 79.792 23.4341V27.7422C80.0299 28.2568 80.3703 28.6497 80.813 28.9209C81.2557 29.1921 81.7786 29.3276 82.3818 29.3276C83.2174 29.3276 83.8677 28.9956 84.3325 28.3315C84.8029 27.6619 85.0381 26.6935 85.0381 25.4263ZM87.6943 25.3765C87.6943 24.5132 87.8604 23.7357 88.1924 23.0439C88.5299 22.3522 89.0031 21.8154 89.6118 21.4336C90.2261 21.0462 90.9206 20.8525 91.6953 20.8525C92.8906 20.8525 93.859 21.2731 94.6006 22.1143C95.3421 22.9499 95.7129 24.0594 95.7129 25.4429V25.6504C95.7129 26.5192 95.5441 27.3022 95.2065 27.9995C94.8745 28.6912 94.4041 29.2253 93.7954 29.6016C93.1867 29.9779 92.4922 30.166 91.7119 30.166C90.5221 30.166 89.5537 29.7482 88.8066 28.9126C88.0651 28.0715 87.6943 26.9591 87.6943 25.5757V25.3765ZM88.6904 25.6504C88.6904 26.724 88.9671 27.6066 89.5205 28.2983C90.0794 28.9845 90.8099 29.3276 91.7119 29.3276C92.6084 29.3276 93.3333 28.9845 93.8867 28.2983C94.4456 27.6066 94.7251 26.6963 94.7251 25.5674V25.3765C94.7251 24.6903 94.5978 24.0622 94.3433 23.4922C94.0887 22.9222 93.7318 22.4823 93.2725 22.1724C92.8132 21.8569 92.2874 21.6992 91.6953 21.6992C90.8099 21.6992 90.0877 22.0479 89.5288 22.7451C88.9699 23.4368 88.6904 24.3444 88.6904 25.4678V25.6504ZM101.092 29.3276C101.784 29.3276 102.362 29.134 102.827 28.7466C103.297 28.3537 103.552 27.8473 103.59 27.2275H104.545C104.517 27.7754 104.346 28.2762 104.03 28.73C103.715 29.1782 103.294 29.5296 102.769 29.7842C102.248 30.0387 101.689 30.166 101.092 30.166C99.9131 30.166 98.9779 29.7565 98.2861 28.9375C97.5999 28.1185 97.2568 27.0173 97.2568 25.6338V25.335C97.2568 24.4495 97.4118 23.6665 97.7217 22.9858C98.0316 22.3052 98.4743 21.7795 99.0498 21.4087C99.6309 21.0379 100.309 20.8525 101.083 20.8525C102.069 20.8525 102.879 21.1458 103.516 21.7324C104.158 22.319 104.501 23.091 104.545 24.0483H103.59C103.546 23.3455 103.292 22.7783 102.827 22.3467C102.367 21.915 101.786 21.6992 101.083 21.6992C100.187 21.6992 99.4897 22.0229 98.9917 22.6704C98.4992 23.3179 98.2529 24.2254 98.2529 25.3931V25.6836C98.2529 26.8291 98.4992 27.7228 98.9917 28.3647C99.4897 29.0067 100.19 29.3276 101.092 29.3276Z" fill="#C0CCD3"/>
<path fill-rule="evenodd" clip-rule="evenodd" d="M17.2 16C16.5373 16 16 16.5222 16 17.1667V25.7222C16 26.3667 16.5373 26.8889 17.2 26.8889H25.2L28.8 30V26.8889H30.8C31.4627 26.8889 32 26.3667 32 25.7222V17.1667C32 16.5222 31.4627 16 30.8 16H17.2ZM21.6 21.4444C21.6 22.0889 21.0627 22.6111 20.4 22.6111C19.7373 22.6111 19.2 22.0889 19.2 21.4444C19.2 20.8 19.7373 20.2778 20.4 20.2778C21.0627 20.2778 21.6 20.8 21.6 21.4444ZM24 22.6111C24.6627 22.6111 25.2 22.0889 25.2 21.4444C25.2 20.8 24.6627 20.2778 24 20.2778C23.3373 20.2778 22.8 20.8 22.8 21.4444C22.8 22.0889 23.3373 22.6111 24 22.6111ZM28.8 21.4444C28.8 22.0889 28.2627 22.6111 27.6 22.6111C26.9373 22.6111 26.4 22.0889 26.4 21.4444C26.4 20.8 26.9373 20.2778 27.6 20.2778C28.2627 20.2778 28.8 20.8 28.8 21.4444Z" fill="#C0CCD3"/>
</svg>
