<svg width="16" height="14" viewBox="0 0 16 14" fill="none" xmlns="http://www.w3.org/2000/svg">
<path fill-rule="evenodd" clip-rule="evenodd" d="M1.2 0C0.537256 0 0 0.52219 0 1.16667V9.72222C0 10.3667 0.537256 10.8889 1.2 10.8889H9.2L12.8 14V10.8889H14.8C15.4627 10.8889 16 10.3667 16 9.72222V1.16667C16 0.52219 15.4627 0 14.8 0H1.2ZM5.6 5.44444C5.6 6.08892 5.06274 6.61111 4.4 6.61111C3.73726 6.61111 3.2 6.08892 3.2 5.44444C3.2 4.79997 3.73726 4.27778 4.4 4.27778C5.06274 4.27778 5.6 4.79997 5.6 5.44444ZM8 6.61111C8.66274 6.61111 9.2 6.08892 9.2 5.44444C9.2 4.79997 8.66274 4.27778 8 4.27778C7.33726 4.27778 6.8 4.79997 6.8 5.44444C6.8 6.08892 7.33726 6.61111 8 6.61111ZM12.8 5.44444C12.8 6.08892 12.2627 6.61111 11.6 6.61111C10.9373 6.61111 10.4 6.08892 10.4 5.44444C10.4 4.79997 10.9373 4.27778 11.6 4.27778C12.2627 4.27778 12.8 4.79997 12.8 5.44444Z" fill="#C0CCD3"/>
</svg>
