<svg width="400" height="256" viewBox="0 0 400 256" fill="none" xmlns="http://www.w3.org/2000/svg">
<g opacity="0.54">
<path d="M193.016 221.042C444.566 160.124 440.038 -51.0756 231.31 11.4442C68.6353 60.1695 -49.0588 279.664 193.016 221.042Z" fill="#BBDDF5" fill-opacity="0.31"/>
<path d="M148.472 224.628C258.372 262.71 382.765 217.439 397.725 175.052C412.685 132.666 353.027 90.0339 243.128 51.9521C-25.8205 -41.2426 -92.134 141.255 148.472 224.628Z" fill="#A6D2FF" fill-opacity="0.29"/>
<path d="M219.49 19.0757C106.935 19.0757 8 104.575 8 150.597C8 196.62 76.1726 217.864 188.728 217.864C464.176 217.864 465.911 19.0757 219.49 19.0757Z" fill="#C2D2DE" fill-opacity="0.78"/>
</g>
<path d="M80 192.765H320V208.852C320 212.166 317.314 214.852 314 214.852H86C82.6863 214.852 80 212.166 80 208.852V192.765Z" fill="#E5E5E5"/>
<mask id="path-5-inside-1" fill="white">
<path d="M80 56.1992C80 52.8855 82.6863 50.1992 86 50.1992H314C317.314 50.1992 320 52.8855 320 56.1992V192.765H80V56.1992Z"/>
</mask>
<path d="M80 56.1992C80 52.8855 82.6863 50.1992 86 50.1992H314C317.314 50.1992 320 52.8855 320 56.1992V192.765H80V56.1992Z" fill="#485760" stroke="#333333" stroke-width="24" mask="url(#path-5-inside-1)"/>
<path d="M170.639 242.92H229.361L235.5 245.976C237 247.984 235.039 248.988 233.413 248.988H166.587C164.961 248.988 163 247.984 164.5 245.976L170.639 242.92Z" fill="#E1E1E1"/>
<path d="M224.335 214.852H175.665L172.957 237.194C172.741 238.981 171.924 240.644 170.639 241.916L164.539 245.976C163.135 247.202 164.707 247.984 166.587 247.984H233.413C235.292 247.984 236.866 247.202 235.461 245.976L229.361 241.916C228.076 240.644 227.259 238.981 227.043 237.194L224.335 214.852Z" fill="url(#paint0_linear)"/>
<g filter="url(#filter0_d)">
<rect x="89" y="59" width="222" height="124.494" rx="2" fill="#95C0E0"/>
<rect x="89" y="59" width="222" height="124.494" rx="2" fill="url(#paint1_linear)"/>
</g>
<g filter="url(#filter1_f)">
<ellipse cx="200" cy="249.992" rx="162" ry="2.00797" fill="#7C9BAE" fill-opacity="0.22"/>
</g>
<g clip-path="url(#clip0)">
<path d="M193.302 126.963L191.536 111.475C191.115 107.781 188.192 104.997 184.739 104.997H177.928C174.475 104.997 171.55 107.781 171.131 111.475L169.366 126.963C169.216 128.259 169.616 129.544 170.462 130.491C171.187 131.307 172.155 131.779 173.2 131.837L174.672 151.763C174.723 152.459 175.304 152.997 176.003 152.997H186.67C187.368 152.997 187.947 152.459 188 151.763L189.472 131.837C190.518 131.779 191.483 131.304 192.211 130.491C193.051 129.547 193.451 128.259 193.302 126.963Z" fill="white"/>
<path d="M181.334 102.333C185.016 102.333 188 99.3494 188 95.6668C188 91.984 185.016 89 181.334 89C177.654 89 174.667 91.984 174.667 95.6666C174.667 99.3494 177.654 102.333 181.334 102.333Z" fill="white"/>
<path d="M200.23 105C203.913 105 206.897 102.016 206.897 98.3334C206.897 94.6507 203.913 91.6667 200.23 91.6667C196.547 91.6667 193.563 94.6507 193.563 98.3334C193.563 102.016 196.55 105 200.23 105Z" fill="white"/>
<path d="M225.331 142.333C223.509 142.333 221.904 143.253 220.941 144.648L209.029 138.693C209.211 138.157 209.331 137.597 209.331 137C209.331 136.403 209.211 135.843 209.029 135.307L220.941 129.352C221.904 130.747 223.509 131.667 225.331 131.667C228.272 131.667 230.664 129.275 230.664 126.333C230.664 123.392 228.272 121 225.331 121C222.389 121 219.997 123.392 219.997 126.333C219.997 126.499 220.032 126.656 220.045 126.819L207.56 133.061C206.613 132.205 205.371 131.667 203.997 131.667C201.056 131.667 198.664 134.059 198.664 137C198.664 139.941 201.056 142.333 203.997 142.333C205.373 142.333 206.616 141.797 207.56 140.939L220.045 147.181C220.029 147.344 219.997 147.499 219.997 147.667C219.997 150.608 222.389 153 225.331 153C228.272 153 230.664 150.608 230.664 147.667C230.664 144.725 228.272 142.333 225.331 142.333Z" fill="white"/>
<path d="M205.531 144.843C205.032 144.941 204.523 145 203.997 145C199.587 145 195.997 141.411 195.997 137C195.997 132.589 199.587 129 203.997 129C205.101 129 206.189 129.235 207.232 129.699C207.597 129.861 208.013 129.853 208.371 129.675L211.443 128.139C211.949 127.885 212.24 127.339 212.168 126.776L210.429 113.325C209.997 109.997 207.077 107.491 203.632 107.491H196.824C196.136 107.491 195.445 107.603 194.715 107.832C194.027 108.051 193.635 108.776 193.835 109.472C193.992 110.024 194.117 110.587 194.187 111.176L195.952 126.664C196.184 128.715 195.544 130.757 194.195 132.269C193.861 132.64 193.453 132.992 192.939 133.339C192.541 133.611 192.32 134.072 192.36 134.552L193.565 148.934C193.621 149.624 194.2 150.155 194.893 150.155H205.56C206.253 150.155 206.832 149.624 206.888 148.934L207.109 146.264C207.144 145.848 206.981 145.438 206.669 145.16C206.363 144.883 205.939 144.763 205.531 144.843Z" fill="white"/>
</g>
<g filter="url(#filter2_d)">
<rect x="47" y="168" width="56" height="56" rx="28" fill="white"/>
</g>
<path d="M79.7408 194.536C78.4851 193.842 77.1501 193.314 75.8282 192.765C75.0616 192.448 74.328 192.078 73.6803 191.562C72.4048 190.544 72.6493 188.892 74.1429 188.238C74.5659 188.053 75.0087 187.993 75.4581 187.967C77.1897 187.874 78.8354 188.192 80.4017 188.945C81.1816 189.322 81.4393 189.203 81.7037 188.39C81.9813 187.531 82.2126 186.658 82.4704 185.792C82.6422 185.211 82.4307 184.828 81.8821 184.583C80.8776 184.14 79.8466 183.823 78.7627 183.651C77.3483 183.433 77.3483 183.426 77.3417 182.005C77.3351 180.003 77.3351 180.003 75.326 180.003C75.0352 180.003 74.7444 179.996 74.4536 180.003C73.5151 180.029 73.3565 180.195 73.33 181.14C73.3168 181.563 73.33 181.986 73.3234 182.415C73.3168 183.671 73.3102 183.651 72.1073 184.087C69.1994 185.145 67.4017 187.128 67.21 190.3C67.0382 193.109 68.5054 195.005 70.812 196.387C72.2329 197.239 73.8059 197.742 75.3127 198.409C75.9009 198.667 76.4627 198.964 76.9518 199.374C78.3992 200.57 78.1348 202.56 76.4165 203.313C75.4978 203.716 74.5263 203.815 73.5283 203.69C71.9884 203.498 70.5146 203.095 69.1267 202.375C68.3137 201.952 68.0758 202.064 67.7982 202.943C67.5603 203.703 67.3488 204.47 67.1373 205.236C66.8531 206.267 66.9589 206.512 67.9436 206.994C69.1994 207.602 70.541 207.913 71.9091 208.131C72.9797 208.303 73.0128 208.349 73.026 209.46C73.0326 209.962 73.0326 210.471 73.0392 210.973C73.0458 211.607 73.3499 211.978 74.0041 211.991C74.7444 212.004 75.4912 212.004 76.2314 211.984C76.8394 211.971 77.1501 211.64 77.1501 211.026C77.1501 210.339 77.1831 209.645 77.1567 208.957C77.1236 208.257 77.4276 207.9 78.1018 207.715C79.6549 207.292 80.9767 206.459 81.9945 205.216C84.8232 201.78 83.7459 196.75 79.7408 194.536Z" fill="#2B9CE5"/>
<g filter="url(#filter3_d)">
<rect x="283" y="146" width="56" height="56" rx="28" fill="white"/>
</g>
<path d="M315.741 172.536C314.485 171.842 313.15 171.314 311.828 170.765C311.062 170.448 310.328 170.078 309.68 169.562C308.405 168.544 308.649 166.892 310.143 166.238C310.566 166.053 311.009 165.993 311.458 165.967C313.19 165.874 314.835 166.192 316.402 166.945C317.182 167.322 317.439 167.203 317.704 166.39C317.981 165.531 318.213 164.658 318.47 163.792C318.642 163.211 318.431 162.828 317.882 162.583C316.878 162.14 315.847 161.823 314.763 161.651C313.348 161.433 313.348 161.426 313.342 160.005C313.335 158.003 313.335 158.003 311.326 158.003C311.035 158.003 310.744 157.996 310.454 158.003C309.515 158.029 309.356 158.195 309.33 159.14C309.317 159.563 309.33 159.986 309.323 160.415C309.317 161.671 309.31 161.651 308.107 162.087C305.199 163.145 303.402 165.128 303.21 168.3C303.038 171.109 304.505 173.005 306.812 174.387C308.233 175.239 309.806 175.742 311.313 176.409C311.901 176.667 312.463 176.964 312.952 177.374C314.399 178.57 314.135 180.56 312.416 181.313C311.498 181.716 310.526 181.815 309.528 181.69C307.988 181.498 306.515 181.095 305.127 180.375C304.314 179.952 304.076 180.064 303.798 180.943C303.56 181.703 303.349 182.47 303.137 183.236C302.853 184.267 302.959 184.512 303.944 184.994C305.199 185.602 306.541 185.913 307.909 186.131C308.98 186.303 309.013 186.349 309.026 187.46C309.033 187.962 309.033 188.471 309.039 188.973C309.046 189.607 309.35 189.978 310.004 189.991C310.744 190.004 311.491 190.004 312.231 189.984C312.839 189.971 313.15 189.64 313.15 189.026C313.15 188.339 313.183 187.645 313.157 186.957C313.124 186.257 313.428 185.9 314.102 185.715C315.655 185.292 316.977 184.459 317.995 183.216C320.823 179.78 319.746 174.75 315.741 172.536Z" fill="#2B9CE5"/>
<g filter="url(#filter4_d)">
<rect x="115" y="19" width="56" height="56" rx="28" fill="white"/>
</g>
<path d="M147.741 45.5363C146.485 44.8423 145.15 44.3136 143.828 43.765C143.062 43.4478 142.328 43.0777 141.68 42.5622C140.405 41.5444 140.649 39.8921 142.143 39.2378C142.566 39.0528 143.009 38.9933 143.458 38.9669C145.19 38.8743 146.835 39.1916 148.402 39.945C149.182 40.3217 149.439 40.2027 149.704 39.3898C149.981 38.5307 150.213 37.6583 150.47 36.7925C150.642 36.2109 150.431 35.8275 149.882 35.583C148.878 35.1402 147.847 34.823 146.763 34.6511C145.348 34.433 145.348 34.4264 145.342 33.0055C145.335 31.0029 145.335 31.0029 143.326 31.0029C143.035 31.0029 142.744 30.9963 142.454 31.0029C141.515 31.0294 141.356 31.1946 141.33 32.1397C141.317 32.5627 141.33 32.9857 141.323 33.4152C141.317 34.671 141.31 34.6511 140.107 35.0873C137.199 36.1448 135.402 38.1275 135.21 41.2998C135.038 44.1087 136.505 46.0055 138.812 47.3868C140.233 48.2394 141.806 48.7416 143.313 49.4092C143.901 49.6669 144.463 49.9643 144.952 50.3741C146.399 51.5703 146.135 53.5597 144.416 54.3131C143.498 54.7162 142.526 54.8154 141.528 54.6898C139.988 54.4981 138.515 54.095 137.127 53.3746C136.314 52.9516 136.076 53.064 135.798 53.943C135.56 54.703 135.349 55.4697 135.137 56.2363C134.853 57.2673 134.959 57.5119 135.944 57.9943C137.199 58.6024 138.541 58.913 139.909 59.1311C140.98 59.3029 141.013 59.3492 141.026 60.4595C141.033 60.9618 141.033 61.4707 141.039 61.973C141.046 62.6075 141.35 62.9776 142.004 62.9908C142.744 63.004 143.491 63.004 144.231 62.9842C144.839 62.9709 145.15 62.6405 145.15 62.0259C145.15 61.3385 145.183 60.6446 145.157 59.9572C145.124 59.2567 145.428 58.8998 146.102 58.7147C147.655 58.2917 148.977 57.459 149.995 56.2165C152.823 52.7798 151.746 47.7503 147.741 45.5363Z" fill="#2B9CE5"/>
<defs>
<filter id="filter0_d" x="69" y="45" width="262" height="164.494" filterUnits="userSpaceOnUse" color-interpolation-filters="sRGB">
<feFlood flood-opacity="0" result="BackgroundImageFix"/>
<feColorMatrix in="SourceAlpha" type="matrix" values="0 0 0 0 0 0 0 0 0 0 0 0 0 0 0 0 0 0 127 0"/>
<feOffset dy="6"/>
<feGaussianBlur stdDeviation="10"/>
<feColorMatrix type="matrix" values="0 0 0 0 0 0 0 0 0 0.318384 0 0 0 0 0.69214 0 0 0 0.1 0"/>
<feBlend mode="normal" in2="BackgroundImageFix" result="effect1_dropShadow"/>
<feBlend mode="normal" in="SourceGraphic" in2="effect1_dropShadow" result="shape"/>
</filter>
<filter id="filter1_f" x="34" y="243.984" width="332" height="12.0159" filterUnits="userSpaceOnUse" color-interpolation-filters="sRGB">
<feFlood flood-opacity="0" result="BackgroundImageFix"/>
<feBlend mode="normal" in="SourceGraphic" in2="BackgroundImageFix" result="shape"/>
<feGaussianBlur stdDeviation="2" result="effect1_foregroundBlur"/>
</filter>
<filter id="filter2_d" x="41" y="163" width="68" height="68" filterUnits="userSpaceOnUse" color-interpolation-filters="sRGB">
<feFlood flood-opacity="0" result="BackgroundImageFix"/>
<feColorMatrix in="SourceAlpha" type="matrix" values="0 0 0 0 0 0 0 0 0 0 0 0 0 0 0 0 0 0 127 0"/>
<feOffset dy="1"/>
<feGaussianBlur stdDeviation="3"/>
<feColorMatrix type="matrix" values="0 0 0 0 0.541176 0 0 0 0 0.592157 0 0 0 0 0.623529 0 0 0 0.18 0"/>
<feBlend mode="normal" in2="BackgroundImageFix" result="effect1_dropShadow"/>
<feBlend mode="normal" in="SourceGraphic" in2="effect1_dropShadow" result="shape"/>
</filter>
<filter id="filter3_d" x="277" y="141" width="68" height="68" filterUnits="userSpaceOnUse" color-interpolation-filters="sRGB">
<feFlood flood-opacity="0" result="BackgroundImageFix"/>
<feColorMatrix in="SourceAlpha" type="matrix" values="0 0 0 0 0 0 0 0 0 0 0 0 0 0 0 0 0 0 127 0"/>
<feOffset dy="1"/>
<feGaussianBlur stdDeviation="3"/>
<feColorMatrix type="matrix" values="0 0 0 0 0.541176 0 0 0 0 0.592157 0 0 0 0 0.623529 0 0 0 0.18 0"/>
<feBlend mode="normal" in2="BackgroundImageFix" result="effect1_dropShadow"/>
<feBlend mode="normal" in="SourceGraphic" in2="effect1_dropShadow" result="shape"/>
</filter>
<filter id="filter4_d" x="109" y="14" width="68" height="68" filterUnits="userSpaceOnUse" color-interpolation-filters="sRGB">
<feFlood flood-opacity="0" result="BackgroundImageFix"/>
<feColorMatrix in="SourceAlpha" type="matrix" values="0 0 0 0 0 0 0 0 0 0 0 0 0 0 0 0 0 0 127 0"/>
<feOffset dy="1"/>
<feGaussianBlur stdDeviation="3"/>
<feColorMatrix type="matrix" values="0 0 0 0 0.541176 0 0 0 0 0.592157 0 0 0 0 0.623529 0 0 0 0.18 0"/>
<feBlend mode="normal" in2="BackgroundImageFix" result="effect1_dropShadow"/>
<feBlend mode="normal" in="SourceGraphic" in2="effect1_dropShadow" result="shape"/>
</filter>
<linearGradient id="paint0_linear" x1="200" y1="214.852" x2="200" y2="247.984" gradientUnits="userSpaceOnUse">
<stop stop-color="#C7C7C7"/>
<stop offset="0.694513" stop-color="#E4E4E4"/>
<stop offset="0.80663" stop-color="#D6D6D6"/>
<stop offset="1" stop-color="#F3F3F3"/>
<stop offset="1" stop-color="#EBEBEB"/>
</linearGradient>
<linearGradient id="paint1_linear" x1="154.5" y1="93" x2="220" y2="200.5" gradientUnits="userSpaceOnUse">
<stop stop-color="white" stop-opacity="0.48"/>
<stop offset="1" stop-color="white" stop-opacity="0"/>
</linearGradient>
<clipPath id="clip0">
<rect x="168" y="89" width="64" height="64" fill="white"/>
</clipPath>
</defs>
</svg>
