<svg width="55" height="56" viewBox="0 0 55 56" fill="none" xmlns="http://www.w3.org/2000/svg">
<path d="M54.8059 3.80937C54.6649 3.64214 54.4632 3.53769 54.2451 3.51909L42.0461 2.47817L41.825 0.721831C41.768 0.270003 41.3543 -0.0502466 40.9032 0.00651898L29.5867 1.42795C29.5421 1.41636 29.4965 1.40761 29.449 1.40356L13.8947 0.0761908C13.4468 0.0368158 13.0402 0.380909 13.0021 0.827487L12.7702 3.53998L0.72224 5.05329C0.276443 5.10929 -0.0496931 5.52853 0.00625042 5.97423L6.1561 54.8438C6.18401 55.0667 6.13617 55.2809 6.22737 55.4964C6.35524 55.7984 6.65959 56 6.98791 56H47.485C47.941 56 48.3104 55.631 48.3104 55.1754V54.1015L49.9089 54.2379C50.3567 54.2767 50.7633 53.9334 50.8014 53.4866L54.997 4.41105C55.0157 4.19306 54.9471 3.97672 54.8059 3.80937ZM6.16256 41.6743L1.74718 6.58662L6.16256 6.03209V41.6743ZM14.5766 1.78955L21.8 2.40588L14.445 3.32977L14.5766 1.78955ZM40.2902 1.74569L40.7119 5.09661H13.6104L40.2902 1.74569ZM49.227 52.5245L48.3104 52.4463V28.3494C48.3104 27.8939 47.941 27.5248 47.485 27.5248C47.029 27.5248 46.6596 27.8938 46.6596 28.3494V54.3507H7.81327V6.74576H46.6597V24.5015C46.6597 24.957 47.0291 25.326 47.4851 25.326C47.9411 25.326 48.3105 24.957 48.3105 24.5015V5.92118C48.3105 5.46575 47.9411 5.09661 47.4851 5.09661H42.3756L42.2566 4.15128L53.2821 5.09212L49.227 52.5245Z" fill="#2F6292"/>
<path d="M43.0832 9.49435H38.6813C38.4053 9.49435 38.1476 9.63206 37.9946 9.86153L36.1265 12.6611C34.1157 11.222 31.6538 10.3738 28.9972 10.3738C28.5414 10.3738 28.1719 10.7429 28.1719 11.1984V22.6325C28.1719 23.0879 28.5413 23.457 28.9972 23.457H40.4421C40.8981 23.457 41.2675 23.088 41.2675 22.6325C41.2675 19.1219 39.7823 15.9517 37.4073 13.7148L39.1231 11.1435H43.0833C43.5392 11.1435 43.9086 10.7745 43.9086 10.3189C43.9086 9.86339 43.539 9.49435 43.0832 9.49435ZM39.585 21.8079H29.8226V12.0547C31.8242 12.2091 33.6708 12.9223 35.2096 14.0352L34.4731 15.1389C34.2431 15.4834 34.3106 15.9606 34.6283 16.2271C35.0003 16.5393 35.5773 16.4569 35.8465 16.0537L36.4768 15.1091C38.2316 16.8506 39.3831 19.1982 39.585 21.8079Z" fill="#2B9CE5"/>
<path d="M43.0829 36.76H35.617L34.3015 34.6573C36.4325 32.4512 37.7456 29.4512 37.7456 26.1506C37.7456 25.6951 37.3762 25.3261 36.9202 25.3261H26.3007V14.7166C26.3007 14.2611 25.9312 13.892 25.4753 13.892C18.7095 13.892 13.2051 19.3913 13.2051 26.1506C13.2051 32.91 18.7095 38.4093 25.4753 38.4093C28.3352 38.4093 30.9695 37.4266 33.0582 35.7817L34.4596 38.0217C34.6104 38.2628 34.8749 38.4093 35.1595 38.4093H43.0829C43.5387 38.4093 43.9082 38.0402 43.9082 37.5847C43.9082 37.1291 43.5387 36.76 43.0829 36.76ZM31.4577 30.1113C31.2162 29.7249 30.7068 29.6076 30.3203 29.849C29.9337 30.0903 29.8161 30.5991 30.0578 30.9853L32.1777 34.374C30.3484 35.8649 28.0147 36.7602 25.4754 36.7602C19.6199 36.7602 14.8559 32.0008 14.8559 26.1507C14.8559 20.5781 19.1787 15.9952 24.6501 15.573V26.1507C24.6501 26.6062 25.0196 26.9753 25.4754 26.9753H36.0632C35.8788 29.3598 34.9019 31.5257 33.3961 33.2101L31.4577 30.1113Z" fill="#2B9CE5"/>
<path d="M18.4328 41.1577H11.3898C10.9341 41.1577 10.5645 41.5267 10.5645 41.9823C10.5645 42.4378 10.9339 42.8069 11.3898 42.8069H18.4328C18.8887 42.8069 19.2581 42.4378 19.2581 41.9823C19.2581 41.5267 18.8887 41.1577 18.4328 41.1577Z" fill="#2F6292"/>
<path d="M28.9972 41.1577H21.9543C21.4984 41.1577 21.1289 41.5267 21.1289 41.9823C21.1289 42.4378 21.4984 42.8069 21.9543 42.8069H28.9972C29.4531 42.8069 29.8226 42.4378 29.8226 41.9823C29.8226 41.5267 29.4531 41.1577 28.9972 41.1577Z" fill="#2F6292"/>
<path d="M22.8347 45.5555H11.3898C10.9341 45.5555 10.5645 45.9245 10.5645 46.3801C10.5645 46.8356 10.9339 47.2046 11.3898 47.2046H22.8347C23.2906 47.2046 23.6601 46.8356 23.6601 46.3801C23.6601 45.9245 23.2905 45.5555 22.8347 45.5555Z" fill="#2F6292"/>
<path d="M28.9968 45.5555H26.3556C25.8999 45.5555 25.5303 45.9245 25.5303 46.3801C25.5303 46.8356 25.8998 47.2046 26.3556 47.2046H28.9968C29.4527 47.2046 29.8222 46.8356 29.8222 46.3801C29.8221 45.9245 29.4527 45.5555 28.9968 45.5555Z" fill="#2F6292"/>
<path d="M14.9113 49.9531H11.3898C10.9341 49.9531 10.5645 50.3222 10.5645 50.7777C10.5645 51.2333 10.9339 51.6023 11.3898 51.6023H14.9113C15.3672 51.6023 15.7367 51.2333 15.7367 50.7777C15.7367 50.3222 15.3672 49.9531 14.9113 49.9531Z" fill="#2F6292"/>
<path d="M28.9972 49.9531H18.4328C17.977 49.9531 17.6074 50.3222 17.6074 50.7777C17.6074 51.2333 17.9769 51.6023 18.4328 51.6023H28.9972C29.4531 51.6023 29.8226 51.2333 29.8226 50.7777C29.8226 50.3222 29.4531 49.9531 28.9972 49.9531Z" fill="#2F6292"/>
</svg>
