<svg width="12" height="14" viewBox="0 0 12 14" fill="none" xmlns="http://www.w3.org/2000/svg">
<path d="M6.76817 0.359863C6.57823 0.131836 6.29673 0 5.99998 0C5.70323 0 5.42173 0.131836 5.23179 0.359863C5.22935 0.362793 5.22679 0.365723 5.22434 0.368652L0.23179 6.35986C-0.121725 6.78418 -0.0644741 7.41455 0.359842 7.76831C0.784037 8.12183 1.41465 8.06445 1.76817 7.64014L4.99998 3.76196V13C4.99998 13.5522 5.44773 14 5.99998 14C6.55223 14 6.99998 13.5522 6.99998 13V3.76196L10.2318 7.64014C10.5853 8.06445 11.2159 8.12183 11.6402 7.76831C12.0644 7.41455 12.1218 6.78418 11.7682 6.35986L6.77561 0.368652C6.77317 0.365723 6.77061 0.362793 6.76817 0.359863Z" fill="white"/>
</svg>
