<svg width="16" height="16" viewBox="0 0 16 16" fill="none" xmlns="http://www.w3.org/2000/svg">
<path d="M11.6001 3.6001C11.6001 5.58838 9.98828 7.2002 8 7.2002C6.01172 7.2002 4.3999 5.58838 4.3999 3.6001C4.3999 1.61182 6.01172 0 8 0C9.98828 0 11.6001 1.61182 11.6001 3.6001Z" fill="#C0CCD3"/>
<path d="M0.399902 12.3999C0.730469 11.6821 4.57471 9.6001 8 9.6001C11.4253 9.6001 15.2695 11.6821 15.6001 12.3999C15.8711 12.9888 16 14.8003 16 14.8003C16 15.4614 15.4639 16 14.8022 16H1.19775C0.536133 16 0 15.4614 0 14.8003C0 14.8003 0.128906 12.9888 0.399902 12.3999Z" fill="#C0CCD3"/>
</svg>
